<?xml version="1.0" standalone="no"?>
<!DOCTYPE svg PUBLIC "-//W3C//DTD SVG 20010904//EN"
 "http://www.w3.org/TR/2001/REC-SVG-20010904/DTD/svg10.dtd">
<svg version="1.0" xmlns="http://www.w3.org/2000/svg"
 width="256.000000pt" height="128.000000pt" viewBox="0 0 256.000000 128.000000"
 preserveAspectRatio="xMidYMid meet">

<g transform="translate(0.000000,128.000000) scale(0.100000,-0.100000)"
fill="#000000" stroke="none">
<path d="M355 1242 c-157 -59 -227 -116 -258 -212 -13 -40 -26 -108 -29 -150
-1 -8 -11 -28 -24 -43 -43 -52 -59 -179 -29 -236 23 -46 74 -83 107 -79 24 4
28 1 28 -21 1 -35 16 -60 76 -123 112 -116 197 -173 308 -207 117 -36 313 -23
360 24 8 9 48 37 88 64 82 55 111 89 127 149 8 26 19 43 32 47 24 8 40 44 44
100 4 38 22 133 32 165 3 8 7 31 9 50 16 177 16 175 -6 226 -46 101 -55 116
-77 125 -13 5 -23 13 -23 19 0 6 6 8 13 4 7 -4 9 -3 4 2 -5 5 -12 9 -15 9 -4
0 -13 4 -20 9 -20 12 -27 -1 -11 -20 13 -16 12 -16 -9 -5 -23 12 -23 12 -7
-13 11 -17 13 -26 6 -26 -7 0 -9 -4 -6 -10 3 -5 11 -10 16 -10 6 0 7 5 4 10
-3 6 0 10 7 10 9 0 9 3 -2 10 -8 5 -10 10 -4 10 6 0 17 -7 24 -15 10 -12 9
-16 -4 -21 -9 -3 -13 -10 -10 -15 3 -5 -7 -4 -21 1 -15 6 -34 10 -43 9 -12 0
-9 -3 7 -10 27 -11 24 -18 -8 -24 -12 -2 -19 0 -16 6 4 5 -6 9 -22 10 -15 0
-38 2 -51 3 -13 2 -25 -1 -28 -6 -3 -4 13 -8 35 -8 38 0 46 -6 42 -32 0 -4 8
-6 19 -5 10 1 16 5 14 9 -3 4 -1 8 5 8 5 0 13 -9 16 -21 5 -15 13 -19 29 -15
27 7 42 -3 43 -31 2 -22 -1 -22 -107 -22 -62 0 -118 -4 -130 -11 -26 -14 -125
-6 -147 11 -8 7 -27 15 -41 17 -14 2 -33 7 -43 13 -10 5 -43 9 -73 9 -31 0
-56 4 -56 9 0 5 6 9 13 8 36 -1 57 4 54 15 -1 8 21 11 73 11 69 0 76 12 10 18
-14 1 4 5 40 9 59 5 63 7 40 17 -19 9 -21 12 -7 12 10 1 15 6 12 11 -3 6 -1
10 5 10 6 0 8 5 5 10 -9 15 -38 12 -32 -3 8 -21 -27 -37 -59 -27 l-29 8 32 1
c40 1 54 20 16 22 -75 4 -92 11 -48 19 36 7 34 7 -25 9 -46 1 -61 4 -50 11 12
8 12 10 1 10 -8 0 -12 3 -8 6 3 3 -3 14 -14 25 -11 11 -17 24 -14 29 3 5 -7
13 -22 16 -27 7 -26 8 22 25 l50 17 -70 1 c-57 0 -89 -7 -170 -37z m460 -400
c6 -4 11 -23 11 -42 3 -81 11 -131 22 -142 16 -16 15 -50 -1 -72 -10 -14 -21
-16 -50 -11 -44 8 -52 18 -38 43 7 13 7 22 -1 30 -9 9 -7 15 6 25 15 11 16 18
8 34 -17 31 -18 75 -3 111 13 32 27 39 46 24z m170 -182 c11 0 26 -4 33 -9 11
-7 10 -11 -2 -24 -10 -10 -12 -18 -6 -22 7 -4 7 -12 0 -25 -7 -14 -17 -17 -37
-14 -15 3 -30 9 -33 13 -3 4 -14 13 -25 19 -20 10 -27 53 -12 68 3 3 3 13 0
21 -4 10 3 9 28 -6 19 -12 43 -21 54 -21z m155 29 c0 -25 -22 -49 -45 -49 -31
0 -31 8 -2 37 24 23 47 30 47 12z m-575 -50 c-6 -30 -10 -32 -29 -14 -23 23
-20 35 8 35 20 0 24 -4 21 -21z m370 -138 c-3 -6 -14 -10 -23 -10 -15 1 -15 2
1 6 9 2 17 9 17 15 0 6 3 9 6 5 3 -3 3 -10 -1 -16z"/>
<path d="M1635 1242 c-157 -59 -227 -116 -258 -212 -13 -40 -26 -108 -29 -150
-1 -8 -11 -28 -24 -43 -43 -52 -59 -179 -29 -236 23 -46 74 -83 107 -79 24 4
28 1 28 -21 1 -35 16 -60 76 -123 112 -116 197 -173 308 -207 117 -36 313 -23
360 24 8 9 48 37 88 64 82 55 111 89 127 149 8 26 19 43 32 47 24 8 40 44 44
100 4 38 22 133 32 165 3 8 7 31 9 50 16 177 16 175 -6 226 -46 101 -55 116
-77 125 -13 5 -23 13 -23 19 0 6 6 8 13 4 7 -4 9 -3 4 2 -5 5 -12 9 -15 9 -4
0 -13 4 -20 9 -20 12 -27 -1 -11 -20 13 -16 12 -16 -9 -5 -23 12 -23 12 -7
-13 11 -17 13 -26 6 -26 -7 0 -9 -4 -6 -10 3 -5 11 -10 16 -10 6 0 7 5 4 10
-3 6 0 10 7 10 9 0 9 3 -2 10 -8 5 -10 10 -4 10 6 0 17 -7 24 -15 10 -12 9
-16 -4 -21 -9 -3 -13 -10 -10 -15 3 -5 -7 -4 -21 1 -15 6 -34 10 -43 9 -12 0
-9 -3 7 -10 27 -11 24 -18 -8 -24 -12 -2 -19 0 -16 6 4 5 -6 9 -22 10 -15 0
-38 2 -51 3 -13 2 -25 -1 -28 -6 -3 -4 13 -8 35 -8 38 0 46 -6 42 -32 0 -4 8
-6 19 -5 10 1 16 5 14 9 -3 4 -1 8 5 8 5 0 13 -9 16 -21 5 -15 13 -19 29 -15
27 7 42 -3 43 -31 2 -22 -1 -22 -107 -22 -62 0 -118 -4 -130 -11 -26 -14 -125
-6 -147 11 -8 7 -27 15 -41 17 -14 2 -33 7 -43 13 -10 5 -43 9 -73 9 -31 0
-56 4 -56 9 0 5 6 9 13 8 36 -1 57 4 54 15 -1 8 21 11 73 11 69 0 76 12 10 18
-14 1 4 5 40 9 59 5 63 7 40 17 -19 9 -21 12 -7 12 10 1 15 6 12 11 -3 6 -1
10 5 10 6 0 8 5 5 10 -9 15 -38 12 -32 -3 8 -21 -27 -37 -59 -27 l-29 8 32 1
c40 1 54 20 16 22 -75 4 -92 11 -48 19 36 7 34 7 -25 9 -46 1 -61 4 -50 11 12
8 12 10 1 10 -8 0 -12 3 -8 6 3 3 -3 14 -14 25 -11 11 -17 24 -14 29 3 5 -7
13 -22 16 -27 7 -26 8 22 25 l50 17 -70 1 c-57 0 -89 -7 -170 -37z m460 -400
c6 -4 11 -23 11 -42 3 -81 11 -131 22 -142 16 -16 15 -50 -1 -72 -10 -14 -21
-16 -50 -11 -44 8 -52 18 -38 43 7 13 7 22 -1 30 -9 9 -7 15 6 25 15 11 16 18
8 34 -17 31 -18 75 -3 111 13 32 27 39 46 24z m170 -182 c11 0 26 -4 33 -9 11
-7 10 -11 -2 -24 -10 -10 -12 -18 -6 -22 7 -4 7 -12 0 -25 -7 -14 -17 -17 -37
-14 -15 3 -30 9 -33 13 -3 4 -14 13 -25 19 -20 10 -27 53 -12 68 3 3 3 13 0
21 -4 10 3 9 28 -6 19 -12 43 -21 54 -21z m155 29 c0 -25 -22 -49 -45 -49 -31
0 -31 8 -2 37 24 23 47 30 47 12z m-575 -50 c-6 -30 -10 -32 -29 -14 -23 23
-20 35 8 35 20 0 24 -4 21 -21z m370 -138 c-3 -6 -14 -10 -23 -10 -15 1 -15 2
1 6 9 2 17 9 17 15 0 6 3 9 6 5 3 -3 3 -10 -1 -16z"/>
<path d="M873 1043 c9 -2 23 -2 30 0 6 3 -1 5 -18 5 -16 0 -22 -2 -12 -5z"/>
<path d="M2153 1043 c9 -2 23 -2 30 0 6 3 -1 5 -18 5 -16 0 -22 -2 -12 -5z"/>
</g>
</svg>
