<?xml version="1.0" encoding="UTF-8"?>
<svg version="1.1" xmlns="http://www.w3.org/2000/svg" width="128" height="64">
<path d="M0 0 C5.85103061 4.36348045 10.65020473 8.9506142 13 16 C13.87692724 24.9154269 10.97151039 33.05697922 7 41 C6.34 41 5.68 41 5 41 C4.7215625 42.2375 4.7215625 42.2375 4.4375 43.5 C2.54040647 48.11901032 -0.25617639 51.6905863 -4 55 C-9.38606315 57.01430004 -15.7109536 56.25913733 -21.3125 55.625 C-25.66804259 52.99141611 -27.08986281 48.58094847 -29 44 C-29.66 44.99 -30.32 45.98 -31 47 C-31.66 47 -32.32 47 -33 47 C-37.16619447 33.55191181 -39.71345776 22.35859269 -34.8125 8.6875 C-30.36969431 2.09989156 -25.41912012 -0.75884107 -17.70703125 -2.53125 C-11.27952205 -3.64423861 -5.71722422 -3.53745464 0 0 Z " fill="#B1C3E4" transform="translate(109,5)"/>
<path d="M0 0 C5.85103061 4.36348045 10.65020473 8.9506142 13 16 C13.87692724 24.9154269 10.97151039 33.05697922 7 41 C6.34 41 5.68 41 5 41 C4.7215625 42.2375 4.7215625 42.2375 4.4375 43.5 C2.54040647 48.11901032 -0.25617639 51.6905863 -4 55 C-9.38606315 57.01430004 -15.7109536 56.25913733 -21.3125 55.625 C-25.66804259 52.99141611 -27.08986281 48.58094847 -29 44 C-29.66 44.99 -30.32 45.98 -31 47 C-31.66 47 -32.32 47 -33 47 C-37.16619447 33.55191181 -39.71345776 22.35859269 -34.8125 8.6875 C-30.36969431 2.09989156 -25.41912012 -0.75884107 -17.70703125 -2.53125 C-11.27952205 -3.64423861 -5.71722422 -3.53745464 0 0 Z " fill="#CBCACD" transform="translate(45,5)"/>
<path d="M0 0 C5.88513007 2.8533964 10.15310579 7.86830981 13.4375 13.4375 C15.59092248 23.24753572 12.39453071 32.21093858 8 41 C7.34 41 6.68 41 6 41 C5.7215625 42.2375 5.7215625 42.2375 5.4375 43.5 C3.54040647 48.11901032 0.74382361 51.6905863 -3 55 C-8.38606315 57.01430004 -14.7109536 56.25913733 -20.3125 55.625 C-24.66804259 52.99141611 -26.08986281 48.58094847 -28 44 C-28.66 44.99 -29.32 45.98 -30 47 C-30.66 47 -31.32 47 -32 47 C-35.72697276 34.96967863 -38.54821111 24.47061332 -35 12 C-34.34 11.01 -33.68 10.02 -33 9 C-33.33 14.28 -33.66 19.56 -34 25 C-33.01 24.67 -32.02 24.34 -31 24 C-30.67 23.34 -30.34 22.68 -30 22 C-29.01 22 -28.02 22 -27 22 C-26.67 21.34 -26.34 20.68 -26 20 C-20.72 20 -15.44 20 -10 20 C-9.67 20.66 -9.34 21.32 -9 22 C-9.9375 24.625 -9.9375 24.625 -11 27 C-12.93674185 27.19517554 -14.87444009 27.38087873 -16.8125 27.5625 C-18.43091797 27.71912109 -18.43091797 27.71912109 -20.08203125 27.87890625 C-23 28 -23 28 -26 27 C-26.20970559 31.14093698 -26.20970559 31.14093698 -25 35 C-23.11235097 35.68472665 -23.11235097 35.68472665 -20.9375 36.125 C-20.20402344 36.29257812 -19.47054687 36.46015625 -18.71484375 36.6328125 C-17.86599609 36.81457031 -17.86599609 36.81457031 -17 37 C-17 37.99 -17 38.98 -17 40 C-11.72 40 -6.44 40 -1 40 C-1.33 39.01 -1.66 38.02 -2 37 C0.475 36.505 0.475 36.505 3 36 C3.04241723 33.66705225 3.04092937 31.33297433 3 29 C0.99345488 26.99345488 -2.31355369 27.28278382 -5 27 C-5.66 27.33 -6.32 27.66 -7 28 C-7 26.35 -7 24.7 -7 23 C-4.23798732 21.61899366 -1.91003504 22.06812281 1.125 22.2578125 C1.74375 22.17273438 2.3625 22.08765625 3 22 C3.66 21.01 4.32 20.02 5 19 C5.66 19 6.32 19 7 19 C7 17.906875 7 16.81375 7 15.6875 C7 13.45833333 7 11.22916667 7 9 C6.0409375 8.62875 6.0409375 8.62875 5.0625 8.25 C3 7 3 7 2.25 4.875 C2.1675 4.25625 2.085 3.6375 2 3 C1.01 3 0.02 3 -1 3 C-0.67 2.01 -0.34 1.02 0 0 Z " fill="#667DA7" transform="translate(108,5)"/>
<path d="M0 0 C1.16306443 3.54950034 0.92365049 6.55823948 0.5625 10.25 C0.40974609 11.86648437 0.40974609 11.86648437 0.25390625 13.515625 C0.17011719 14.33546875 0.08632812 15.1553125 0 16 C0.99 15.67 1.98 15.34 3 15 C3.33 14.34 3.66 13.68 4 13 C4.99 13 5.98 13 7 13 C7.33 12.34 7.66 11.68 8 11 C13.28 11 18.56 11 24 11 C24.33 11.66 24.66 12.32 25 13 C24.0625 15.625 24.0625 15.625 23 18 C21.06325815 18.19517554 19.12555991 18.38087873 17.1875 18.5625 C15.56908203 18.71912109 15.56908203 18.71912109 13.91796875 18.87890625 C11 19 11 19 8 18 C7.79029441 22.14093698 7.79029441 22.14093698 9 26 C10.88764903 26.68472665 10.88764903 26.68472665 13.0625 27.125 C13.79597656 27.29257812 14.52945312 27.46015625 15.28515625 27.6328125 C15.85105469 27.75398438 16.41695312 27.87515625 17 28 C17 28.99 17 29.98 17 31 C22.28 31 27.56 31 33 31 C32.505 29.515 32.505 29.515 32 28 C33.65 27.67 35.3 27.34 37 27 C37.04241723 24.66705225 37.04092937 22.33297433 37 20 C34.99345488 17.99345488 31.68644631 18.28278382 29 18 C28.34 18.33 27.68 18.66 27 19 C27 17.35 27 15.7 27 14 C29.76201268 12.61899366 32.08996496 13.06812281 35.125 13.2578125 C35.74375 13.17273437 36.3625 13.08765625 37 13 C37.66 12.01 38.32 11.02 39 10 C39.66 10 40.32 10 41 10 C41.144375 9.401875 41.28875 8.80375 41.4375 8.1875 C42.26173621 4.98213696 43.143381 2.7849285 45 0 C48.52630146 6.9056737 49.17039018 12.1154792 46.91015625 19.6171875 C45.46680048 23.81784681 43.98823454 28.02353093 42 32 C41.34 32 40.68 32 40 32 C39.7215625 33.2375 39.7215625 33.2375 39.4375 34.5 C37.54040647 39.11901032 34.74382361 42.6905863 31 46 C25.61393685 48.01430004 19.2890464 47.25913733 13.6875 46.625 C9.33195741 43.99141611 7.91013719 39.58094847 6 35 C5.34 35.99 4.68 36.98 4 38 C3.34 38 2.68 38 2 38 C-2.13714868 24.64566892 -4.5472551 13.64176531 0 0 Z " fill="#788DB6" transform="translate(10,14)"/>
<path d="M0 0 C3.99782522 2.17024798 7.15431649 4.4225693 10 8 C10.3125 11.8125 10.3125 11.8125 10 15 C9.34 15.33 8.68 15.66 8 16 C7.505 17.485 7.505 17.485 7 19 C5.39192964 20.81781867 4.1785148 21.9107426 2 23 C0.45976004 23.06950541 -1.08334988 23.08452357 -2.625 23.0625 C-3.85089844 23.04896484 -3.85089844 23.04896484 -5.1015625 23.03515625 C-5.72804688 23.02355469 -6.35453125 23.01195313 -7 23 C-6.34 23.99 -5.68 24.98 -5 26 C-2.67284 26.37400786 -0.33882138 26.70764733 2 27 C4 29 4 29 4.125 32.625 C4.08375 33.73875 4.0425 34.8525 4 36 C2.35 36.66 0.7 37.32 -1 38 C-1 38.66 -1 39.32 -1 40 C-6.28 40 -11.56 40 -17 40 C-17 39.01 -17 38.02 -17 37 C-19.01822917 36.83723958 -21.03645833 36.67447917 -23.0546875 36.51171875 C-25 36 -25 36 -27 33 C-27.125 29.8125 -27.125 29.8125 -27 27 C-25.68 27 -24.36 27 -23 27 C-21.12358631 26.87365123 -19.24848796 26.72661957 -17.375 26.5625 C-15.93253906 26.44068359 -15.93253906 26.44068359 -14.4609375 26.31640625 C-12.00023927 26.13741277 -12.00023927 26.13741277 -10 25 C-10 27.97 -10 30.94 -10 34 C-8.515 34.495 -8.515 34.495 -7 35 C-7.66 31.04 -8.32 27.08 -9 23 C-5.81237635 20.87491756 -3.73487777 20.4979837 0 20 C-0.495 19.38125 -0.99 18.7625 -1.5 18.125 C-3 16 -3 16 -3 14 C-4.32 13.34 -5.64 12.68 -7 12 C-7 11.34 -7 10.68 -7 10 C-2 12 -2 12 3 14 C3 13.01 3 12.02 3 11 C2.67 10.67 2.34 10.34 2 10 C1.95907063 7.66702567 1.95758277 5.33294775 2 3 C1.01 3 0.02 3 -1 3 C-0.67 2.01 -0.34 1.02 0 0 Z " fill="#99A6BC" transform="translate(44,5)"/>
<path d="M0 0 C3.91841827 1.30613942 6.32640809 2.83129848 9 6 C9 6.66 9 7.32 9 8 C10.65 7.67 12.3 7.34 14 7 C14 9 14 9 12.625 10.5625 C9.8378487 13.02805692 8.00217032 13.11431672 4.375 13.0625 C3.14910156 13.04896484 3.14910156 13.04896484 1.8984375 13.03515625 C0.95871094 13.01775391 0.95871094 13.01775391 0 13 C0.99 14.485 0.99 14.485 2 16 C4.32716 16.37400786 6.66117862 16.70764733 9 17 C11 19 11 19 11.125 22.625 C11.08375 23.73875 11.0425 24.8525 11 26 C9.35 26.66 7.7 27.32 6 28 C6 28.66 6 29.32 6 30 C0.72 30 -4.56 30 -10 30 C-10 29.01 -10 28.02 -10 27 C-12.01822917 26.83723958 -14.03645833 26.67447917 -16.0546875 26.51171875 C-18 26 -18 26 -20 23 C-20.125 19.8125 -20.125 19.8125 -20 17 C-18.68 17 -17.36 17 -16 17 C-14.12358631 16.87365123 -12.24848796 16.72661957 -10.375 16.5625 C-8.93253906 16.44068359 -8.93253906 16.44068359 -7.4609375 16.31640625 C-5.00023927 16.13741277 -5.00023927 16.13741277 -3 15 C-3 17.97 -3 20.94 -3 24 C-2.01 24.33 -1.02 24.66 0 25 C-0.66 21.04 -1.32 17.08 -2 13 C1.18762365 10.87491756 3.26512223 10.4979837 7 10 C6.505 9.38125 6.01 8.7625 5.5 8.125 C4 6 4 6 4 4 C2.68 3.34 1.36 2.68 0 2 C0 1.34 0 0.68 0 0 Z " fill="#99A6BC" transform="translate(101,15)"/>
<path d="M0 0 C0 1.32 0 2.64 0 4 C0.99 4 1.98 4 3 4 C3.061875 4.61875 3.12375 5.2375 3.1875 5.875 C3.828919 8.27761141 3.828919 8.27761141 6.5625 9.25 C7.366875 9.4975 8.17125 9.745 9 10 C8.01 12.97 7.02 15.94 6 19 C4.68 19 3.36 19 2 19 C1.938125 18.38125 1.87625 17.7625 1.8125 17.125 C1.18624774 14.75320779 1.18624774 14.75320779 -1.375 13.875 C-2.24125 13.58625 -3.1075 13.2975 -4 13 C-4.99 12.34 -5.98 11.68 -7 11 C-7 10.34 -7 9.68 -7 9 C-8.98 8.34 -10.96 7.68 -13 7 C-13.33 7.99 -13.66 8.98 -14 10 C-15.11375 9.938125 -16.2275 9.87625 -17.375 9.8125 C-19.169375 9.9053125 -19.169375 9.9053125 -21 10 C-21.99 11.485 -21.99 11.485 -23 13 C-24.23921302 10.02588876 -25.30058404 7.14737182 -26 4 C-26.99 4 -27.98 4 -29 4 C-21.0446146 -2.63568362 -9.43987816 -3.77595127 0 0 Z " fill="#CBCACD" transform="translate(108,4)"/>
<path d="M0 0 C3.38937225 4.27355632 4.39061877 7.65750852 4.36328125 13.1796875 C3.53628649 19.60001243 0.88451845 26.2309631 -2 32 C-2.66 32 -3.32 32 -4 32 C-4.66 33.98 -5.32 35.96 -6 38 C-7 35 -7 35 -6.0625 32.8125 C-5.711875 32.214375 -5.36125 31.61625 -5 31 C-5.66773437 31.32613281 -6.33546875 31.65226562 -7.0234375 31.98828125 C-10.68917626 33.23424758 -13.75936724 33.22943487 -17.625 33.1875 C-18.93726563 33.18105469 -20.24953125 33.17460938 -21.6015625 33.16796875 C-25 33 -25 33 -28 32 C-27.67 31.34 -27.34 30.68 -27 30 C-21.72 30.33 -16.44 30.66 -11 31 C-11.33 30.01 -11.66 29.02 -12 28 C-10.35 27.67 -8.7 27.34 -7 27 C-6.95758277 24.66705225 -6.95907063 22.33297433 -7 20 C-9.00654512 17.99345488 -12.31355369 18.28278382 -15 18 C-15.66 18.33 -16.32 18.66 -17 19 C-17 17.35 -17 15.7 -17 14 C-14.23798732 12.61899366 -11.91003504 13.06812281 -8.875 13.2578125 C-8.25625 13.17273437 -7.6375 13.08765625 -7 13 C-6.34 12.01 -5.68 11.02 -5 10 C-4.34 10 -3.68 10 -3 10 C-2.7834375 9.1028125 -2.7834375 9.1028125 -2.5625 8.1875 C-1.84801717 5.40895565 -0.9070752 2.7212256 0 0 Z " fill="#8C99B0" transform="translate(54,14)"/>
<path d="M0 0 C5.88513007 2.8533964 10.15310579 7.86830981 13.4375 13.4375 C15.17814747 21.36711625 14.12665273 29.92731444 10 37 C6.37819371 38.68399349 4.02125868 39 0 39 C0 38.34 0 37.68 0 37 C1.485 36.505 1.485 36.505 3 36 C3.04241723 33.66705225 3.04092937 31.33297433 3 29 C0.99345488 26.99345488 -2.31355369 27.28278382 -5 27 C-5.66 27.33 -6.32 27.66 -7 28 C-7 26.35 -7 24.7 -7 23 C-4.23798732 21.61899366 -1.91003504 22.06812281 1.125 22.2578125 C1.74375 22.17273438 2.3625 22.08765625 3 22 C3.66 21.01 4.32 20.02 5 19 C5.66 19 6.32 19 7 19 C7 17.906875 7 16.81375 7 15.6875 C7 13.45833333 7 11.22916667 7 9 C6.360625 8.7525 5.72125 8.505 5.0625 8.25 C3 7 3 7 2.25 4.875 C2.1675 4.25625 2.085 3.6375 2 3 C1.01 3 0.02 3 -1 3 C-0.67 2.01 -0.34 1.02 0 0 Z " fill="#959BA8" transform="translate(108,5)"/>
<path d="M0 0 C1.16306443 3.54950034 0.92365049 6.55823948 0.5625 10.25 C0.40974609 11.86648437 0.40974609 11.86648437 0.25390625 13.515625 C0.17011719 14.33546875 0.08632812 15.1553125 0 16 C0.99 15.67 1.98 15.34 3 15 C3.33 14.34 3.66 13.68 4 13 C4.99 13 5.98 13 7 13 C7.33 12.34 7.66 11.68 8 11 C13.28 11 18.56 11 24 11 C24.33 11.66 24.66 12.32 25 13 C24.0625 15.625 24.0625 15.625 23 18 C21.06325815 18.19517554 19.12555991 18.38087873 17.1875 18.5625 C15.56908203 18.71912109 15.56908203 18.71912109 13.91796875 18.87890625 C11 19 11 19 8 18 C7.79029441 22.14093698 7.79029441 22.14093698 9 26 C10.97888961 26.72693904 12.97954558 27.39816251 15 28 C14.443125 28.12375 13.88625 28.2475 13.3125 28.375 C10.77885636 29.05976855 8.42078968 29.99133763 6 31 C6 30.01 6 29.02 6 28 C5.34 28 4.68 28 4 28 C3.67 29.32 3.34 30.64 3 32 C2.34 32 1.68 32 1 32 C-3.28303054 20.76853365 -4.11547057 11.41107748 0 0 Z " fill="#ACAFBB" transform="translate(10,14)"/>
<path d="M0 0 C1.16306443 3.54950034 0.92365049 6.55823948 0.5625 10.25 C0.40974609 11.86648437 0.40974609 11.86648437 0.25390625 13.515625 C0.17011719 14.33546875 0.08632812 15.1553125 0 16 C0.99 15.67 1.98 15.34 3 15 C3.33 14.34 3.66 13.68 4 13 C4.99 13 5.98 13 7 13 C7.33 12.34 7.66 11.68 8 11 C13.28 11 18.56 11 24 11 C24.33 11.66 24.66 12.32 25 13 C24.0625 15.625 24.0625 15.625 23 18 C21.06325815 18.19517554 19.12555991 18.38087873 17.1875 18.5625 C15.56908203 18.71912109 15.56908203 18.71912109 13.91796875 18.87890625 C11 19 11 19 8 18 C7.34 20.31 6.68 22.62 6 25 C3.50935112 25.68707555 1.62113708 26 -1 26 C-4.34569206 17.53736714 -3.08072841 8.39624752 0 0 Z " fill="#ACAFBB" transform="translate(74,14)"/>
<path d="M0 0 C0.6703125 0.16242187 1.340625 0.32484375 2.03125 0.4921875 C5.56288679 1.09628327 8.91755834 1.13216488 12.5 1.125 C13.7890625 1.12757812 15.078125 1.13015625 16.40625 1.1328125 C19.42209033 1.02135753 22.07792088 0.70804225 25 0 C24.31339949 3.17797951 23.48541546 6.09813481 22 9 C15.87883923 12.12304121 7.64651672 11.8008539 1 10.25 C-2 9 -2 9 -3.4375 7.0625 C-4 5 -4 5 -4 2 C-3.01 2.33 -2.02 2.66 -1 3 C-0.67 2.01 -0.34 1.02 0 0 Z " fill="#7E94BE" transform="translate(88,45)"/>
<path d="M0 0 C2.3125 0.1875 2.3125 0.1875 5 1 C6 2.66666667 7 4.33333333 8 6 C10.38084878 6.84298574 10.38084878 6.84298574 13 7 C15.6875 7.3125 15.6875 7.3125 18 8 C18.66 9.32 19.32 10.64 20 12 C17.03 12.66 14.06 13.32 11 14 C11.33 17.96 11.66 21.92 12 26 C10.68 25.67 9.36 25.34 8 25 C8.33 20.71 8.66 16.42 9 12 C4.71 12 0.42 12 -4 12 C-3.67 11.01 -3.34 10.02 -3 9 C-2.34 8.67 -1.68 8.34 -1 8 C-1.20625 7.236875 -1.4125 6.47375 -1.625 5.6875 C-2 3 -2 3 0 0 Z " fill="#C8D8FB" transform="translate(89,14)"/>
<path d="M0 0 C2.3125 0.1875 2.3125 0.1875 5 1 C6 2.66666667 7 4.33333333 8 6 C10.38084878 6.84298574 10.38084878 6.84298574 13 7 C15.6875 7.3125 15.6875 7.3125 18 8 C18.66 9.32 19.32 10.64 20 12 C17.03 12.66 14.06 13.32 11 14 C11.33 17.96 11.66 21.92 12 26 C10.68 25.67 9.36 25.34 8 25 C8.33 20.71 8.66 16.42 9 12 C4.71 12 0.42 12 -4 12 C-3.67 11.01 -3.34 10.02 -3 9 C-2.34 8.67 -1.68 8.34 -1 8 C-1.20625 7.236875 -1.4125 6.47375 -1.625 5.6875 C-2 3 -2 3 0 0 Z " fill="#C8D8FB" transform="translate(25,14)"/>
<path d="M0 0 C2.73050362 2.73050362 2.4613484 4.62984574 2.75 8.4375 C2.89695312 10.16806641 2.89695312 10.16806641 3.046875 11.93359375 C3 15 3 15 1 18 C0.34 18 -0.32 18 -1 18 C-1 18.66 -1 19.32 -1 20 C-1.99 20 -2.98 20 -4 20 C-4.33 20.99 -4.66 21.98 -5 23 C-5.99 23 -6.98 23 -8 23 C-8.40639462 9.25031552 -8.40639462 9.25031552 -6 4 C-2.875 1.5625 -2.875 1.5625 0 0 Z " fill="#CFCED0" transform="translate(18,7)"/>
<path d="M0 0 C0.33 0 0.66 0 1 0 C1 3.3 1 6.6 1 10 C0.01 10.33 -0.98 10.66 -2 11 C-1.34 12.32 -0.68 13.64 0 15 C-1.98 15 -3.96 15 -6 15 C-6 14.01 -6 13.02 -6 12 C-8.01822917 11.83723958 -10.03645833 11.67447917 -12.0546875 11.51171875 C-14 11 -14 11 -16 8 C-16.125 4.8125 -16.125 4.8125 -16 2 C-14.68 2 -13.36 2 -12 2 C-10.10275363 1.87387471 -8.2068142 1.72689309 -6.3125 1.5625 C-5.33925781 1.48128906 -4.36601563 1.40007813 -3.36328125 1.31640625 C-1.04738271 1.24972272 -1.04738271 1.24972272 0 0 Z " fill="#96ACD4" transform="translate(97,30)"/>
<path d="M0 0 C0.33 0 0.66 0 1 0 C1 3.3 1 6.6 1 10 C0.01 10.33 -0.98 10.66 -2 11 C-1.34 12.32 -0.68 13.64 0 15 C-1.98 15 -3.96 15 -6 15 C-6 14.01 -6 13.02 -6 12 C-8.01822917 11.83723958 -10.03645833 11.67447917 -12.0546875 11.51171875 C-14 11 -14 11 -16 8 C-16.125 4.8125 -16.125 4.8125 -16 2 C-14.68 2 -13.36 2 -12 2 C-10.10275363 1.87387471 -8.2068142 1.72689309 -6.3125 1.5625 C-5.33925781 1.48128906 -4.36601562 1.40007813 -3.36328125 1.31640625 C-1.04738271 1.24972272 -1.04738271 1.24972272 0 0 Z " fill="#96ACD4" transform="translate(33,30)"/>
<path d="M0 0 C2.25 0.0625 2.25 0.0625 5 1 C6.01171875 2.58984375 6.01171875 2.58984375 6.9375 4.5 C8.46359913 7.56168241 8.46359913 7.56168241 11.625 8.9375 C12.73875 8.958125 13.8525 8.97875 15 9 C15.77988281 9.02449219 16.55976562 9.04898438 17.36328125 9.07421875 C22.35587907 9.17270702 27.08361821 8.85502292 32 8 C27.11122853 14.38256275 27.11122853 14.38256275 23 15 C11.64072707 15.80602102 11.64072707 15.80602102 7 13 C5.00174214 9.7985471 3.45086528 6.47950876 2 3 C1.01 4.485 1.01 4.485 0 6 C-0.66 5.67 -1.32 5.34 -2 5 C-1.34 3.35 -0.68 1.7 0 0 Z " fill="#374652" transform="translate(78,46)"/>
<path d="M0 0 C2.25 0.0625 2.25 0.0625 5 1 C6.01171875 2.58984375 6.01171875 2.58984375 6.9375 4.5 C8.46359913 7.56168241 8.46359913 7.56168241 11.625 8.9375 C12.73875 8.958125 13.8525 8.97875 15 9 C15.77988281 9.02449219 16.55976563 9.04898438 17.36328125 9.07421875 C22.35587907 9.17270702 27.08361821 8.85502292 32 8 C27.11122853 14.38256275 27.11122853 14.38256275 23 15 C11.64072707 15.80602102 11.64072707 15.80602102 7 13 C5.00174214 9.7985471 3.45086528 6.47950876 2 3 C1.01 4.485 1.01 4.485 0 6 C-0.66 5.67 -1.32 5.34 -2 5 C-1.34 3.35 -0.68 1.7 0 0 Z " fill="#374652" transform="translate(14,46)"/>
<path d="M0 0 C-0.39595843 1.48484412 -0.81750706 2.9628831 -1.25 4.4375 C-1.48203125 5.26121094 -1.7140625 6.08492187 -1.953125 6.93359375 C-3 9 -3 9 -4.76953125 9.7734375 C-7.33881221 10.03441525 -9.8539928 10.16958386 -12.4375 10.1875 C-13.36433594 10.20167969 -14.29117188 10.21585938 -15.24609375 10.23046875 C-18.24038015 9.97988308 -20.35333341 9.42187939 -23 8 C-23.8125 4.875 -23.8125 4.875 -24 2 C-19.125 2.875 -19.125 2.875 -18 4 C-12.74582507 4.67361217 -8.88575226 2.93196462 -4.171875 0.875 C-2 0 -2 0 0 0 Z " fill="#7B8FB2" transform="translate(49,45)"/>
<path d="M0 0 C0 0.33 0 0.66 0 1 C-0.56589844 1.12117187 -1.13179687 1.24234375 -1.71484375 1.3671875 C-2.44832031 1.53476562 -3.18179688 1.70234375 -3.9375 1.875 C-4.66839844 2.03742187 -5.39929688 2.19984375 -6.15234375 2.3671875 C-8.20700294 2.82961523 -8.20700294 2.82961523 -9 5 C-6.525 5.99 -6.525 5.99 -4 7 C-4 7.66 -4 8.32 -4 9 C-3.34 9 -2.68 9 -2 9 C-2.33 9.66 -2.66 10.32 -3 11 C-4.32 10.34 -5.64 9.68 -7 9 C-7.33 9.99 -7.66 10.98 -8 12 C-9.11375 11.938125 -10.2275 11.87625 -11.375 11.8125 C-13.169375 11.9053125 -13.169375 11.9053125 -15 12 C-15.99 13.485 -15.99 13.485 -17 15 C-18.23921302 12.02588876 -19.30058404 9.14737182 -20 6 C-20.99 6 -21.98 6 -23 6 C-16.54728034 0.61770814 -8.16855919 -0.46237127 0 0 Z " fill="#B3B8C5" transform="translate(102,2)"/>
<path d="M0 0 C0 0.33 0 0.66 0 1 C-0.56589844 1.12117187 -1.13179687 1.24234375 -1.71484375 1.3671875 C-2.44832031 1.53476562 -3.18179688 1.70234375 -3.9375 1.875 C-4.66839844 2.03742187 -5.39929688 2.19984375 -6.15234375 2.3671875 C-8.20700294 2.82961523 -8.20700294 2.82961523 -9 5 C-6.525 5.99 -6.525 5.99 -4 7 C-4 7.66 -4 8.32 -4 9 C-3.34 9 -2.68 9 -2 9 C-2.33 9.66 -2.66 10.32 -3 11 C-4.32 10.34 -5.64 9.68 -7 9 C-7.33 9.99 -7.66 10.98 -8 12 C-9.11375 11.938125 -10.2275 11.87625 -11.375 11.8125 C-13.169375 11.9053125 -13.169375 11.9053125 -15 12 C-15.99 13.485 -15.99 13.485 -17 15 C-18.23921302 12.02588876 -19.30058404 9.14737182 -20 6 C-20.99 6 -21.98 6 -23 6 C-16.54728034 0.61770814 -8.16855919 -0.46237127 0 0 Z " fill="#B3B8C5" transform="translate(38,2)"/>
<path d="M0 0 C0.33 0.66 0.66 1.32 1 2 C0.0625 4.625 0.0625 4.625 -1 7 C-2.89409978 7.22354607 -4.7904348 7.42819951 -6.6875 7.625 C-8.27111328 7.79902344 -8.27111328 7.79902344 -9.88671875 7.9765625 C-13.13716346 8.0010326 -15.10230796 7.40852563 -18 6 C-17.34 4.35 -16.68 2.7 -16 1 C-10.61509359 0.08342019 -5.45769811 -0.11138159 0 0 Z " fill="#97A9CD" transform="translate(98,25)"/>
<path d="M0 0 C0.33 0.66 0.66 1.32 1 2 C0.0625 4.625 0.0625 4.625 -1 7 C-2.89409978 7.22354607 -4.7904348 7.42819951 -6.6875 7.625 C-8.27111328 7.79902344 -8.27111328 7.79902344 -9.88671875 7.9765625 C-13.13716346 8.0010326 -15.10230796 7.40852563 -18 6 C-17.34 4.35 -16.68 2.7 -16 1 C-10.61509359 0.08342019 -5.45769811 -0.11138159 0 0 Z " fill="#97A9CD" transform="translate(34,25)"/>
<path d="M0 0 C2.875 0.6875 2.875 0.6875 6 2 C7.25 4.5625 7.25 4.5625 8 7 C8.66 7.33 9.32 7.66 10 8 C10 8.66 10 9.32 10 10 C7.1875 10.625 7.1875 10.625 4 11 C1 9 1 9 -0.4375 6.375 C-1.2109375 5.199375 -1.2109375 5.199375 -2 4 C-3.32 4 -4.64 4 -6 4 C-6.66 5.98 -7.32 7.96 -8 10 C-7.34 10.33 -6.68 10.66 -6 11 C-7.32 12.32 -8.64 13.64 -10 15 C-10.99 14.67 -11.98 14.34 -13 14 C-12.34 13.01 -11.68 12.02 -11 11 C-10.4172881 9.45233858 -9.87735813 7.88807778 -9.375 6.3125 C-9.11460938 5.50425781 -8.85421875 4.69601563 -8.5859375 3.86328125 C-8.39257812 3.24839844 -8.19921875 2.63351563 -8 2 C-5.69 2 -3.38 2 -1 2 C-0.67 1.34 -0.34 0.68 0 0 Z " fill="#B1C3E4" transform="translate(31,11)"/>
<path d="M0 0 C-0.99 2.97 -1.98 5.94 -3 9 C-5.31 9.33 -7.62 9.66 -10 10 C-9.67 9.01 -9.34 8.02 -9 7 C-9.60328125 6.90203125 -10.2065625 6.8040625 -10.828125 6.703125 C-11.62734375 6.55359375 -12.4265625 6.4040625 -13.25 6.25 C-14.03890625 6.11078125 -14.8278125 5.9715625 -15.640625 5.828125 C-18.54469485 4.80881571 -19.9799238 3.27953553 -22 1 C-20.21142578 1.01740234 -20.21142578 1.01740234 -18.38671875 1.03515625 C-16.82031406 1.04453592 -15.25390769 1.05363593 -13.6875 1.0625 C-12.50897461 1.07506836 -12.50897461 1.07506836 -11.30664062 1.08789062 C-10.1706543 1.09272461 -10.1706543 1.09272461 -9.01171875 1.09765625 C-7.96697388 1.10551147 -7.96697388 1.10551147 -6.90112305 1.11352539 C-4.45785586 0.96762591 -2.46000489 0 0 0 Z " fill="#7B8FB2" transform="translate(113,45)"/>
<path d="M0 0 C3.99782522 2.17024798 7.15431649 4.4225693 10 8 C10.625 11.625 10.625 11.625 10 15 C7.15739513 17.38164192 5.71594733 18 2 18 C1.67 16.68 1.34 15.36 1 14 C1.99 13.67 2.98 13.34 4 13 C3.34 12.01 2.68 11.02 2 10 C1.92094936 7.66800612 1.91201231 5.33167378 2 3 C1.01 3 0.02 3 -1 3 C-0.67 2.01 -0.34 1.02 0 0 Z " fill="#C4C4C5" transform="translate(44,5)"/>
<path d="M0 0 C2.77042109 2.77042109 2.39796106 4.76533805 2.625 8.625 C2.69976562 9.81351563 2.77453125 11.00203125 2.8515625 12.2265625 C2.92503906 13.59941406 2.92503906 13.59941406 3 15 C0.23735711 15.59732819 -2.16032769 16 -5 16 C-5.6875 14.3125 -5.6875 14.3125 -6 12 C-5.01810813 10.32260138 -4.01866229 8.65532623 -3 7 C-3.33 6.01 -3.66 5.02 -4 4 C-2.68 2.68 -1.36 1.36 0 0 Z " fill="#E0DFE5" transform="translate(82,7)"/>
<path d="M0 0 C2.72031972 4.08047958 2.51736719 7.20872991 2 12 C1.19509633 15.08468863 0.17622574 18.03843161 -1 21 C-1.33 21 -1.66 21 -2 21 C-2 19.35 -2 17.7 -2 16 C-2.66 16 -3.32 16 -4 16 C-4.76173392 11.6835078 -5.16063604 8.25566547 -4 4 C-3.01 3.67 -2.02 3.34 -1 3 C-0.67 2.01 -0.34 1.02 0 0 Z " fill="#72777A" transform="translate(120,18)"/>
<path d="M0 0 C1.125 1.75 1.125 1.75 2 4 C1.1875 5.875 1.1875 5.875 0 8 C-0.38290462 9.99110401 -0.72604615 11.99100513 -1 14 C-0.01 14 0.98 14 2 14 C2.33 13.34 2.66 12.68 3 12 C3 12.66 3 13.32 3 14 C3.99 13.67 4.98 13.34 6 13 C5.67 13.99 5.34 14.98 5 16 C4.34 16 3.68 16 3 16 C3 16.66 3 17.32 3 18 C2.01 18 1.02 18 0 18 C-0.33 18.99 -0.66 19.98 -1 21 C-1.99 21 -2.98 21 -4 21 C-4.38167939 8.08651399 -4.38167939 8.08651399 -2 2 C-1.34 1.34 -0.68 0.68 0 0 Z " fill="#D0CED2" transform="translate(78,9)"/>
<path d="M0 0 C2.77042109 2.77042109 2.39796106 4.76533805 2.625 8.625 C2.69976562 9.81351563 2.77453125 11.00203125 2.8515625 12.2265625 C2.92503906 13.59941406 2.92503906 13.59941406 3 15 C1.68 15.33 0.36 15.66 -1 16 C-1 15.34 -1 14.68 -1 14 C-0.34 14 0.32 14 1 14 C0.67 13.34 0.34 12.68 0 12 C-0.66 13.32 -1.32 14.64 -2 16 C-2.99 16 -3.98 16 -5 16 C-5.6875 14.3125 -5.6875 14.3125 -6 12 C-5.01810813 10.32260138 -4.01866229 8.65532623 -3 7 C-3.33 6.01 -3.66 5.02 -4 4 C-2.68 2.68 -1.36 1.36 0 0 Z " fill="#E0E0E6" transform="translate(18,7)"/>
<path d="M0 0 C3.375 -0.125 3.375 -0.125 7 0 C9 2 9 2 9.125 5.625 C9.08375 6.73875 9.0425 7.8525 9 9 C7.35 9.33 5.7 9.66 4 10 C3.67 9.01 3.34 8.02 3 7 C0.99983534 5.79117904 0.99983534 5.79117904 -1 5 C-0.67 3.35 -0.34 1.7 0 0 Z " fill="#C8DEFB" transform="translate(103,32)"/>
<path d="M0 0 C3.375 -0.125 3.375 -0.125 7 0 C9 2 9 2 9.125 5.625 C9.08375 6.73875 9.0425 7.8525 9 9 C7.35 9.33 5.7 9.66 4 10 C3.67 9.01 3.34 8.02 3 7 C0.99983534 5.79117904 0.99983534 5.79117904 -1 5 C-0.67 3.35 -0.34 1.7 0 0 Z " fill="#C8DEFB" transform="translate(39,32)"/>
<path d="M0 0 C0.66 1.32 1.32 2.64 2 4 C-0.97 4.66 -3.94 5.32 -7 6 C-6.67 9.96 -6.34 13.92 -6 18 C-7.32 17.67 -8.64 17.34 -10 17 C-9.67 12.38 -9.34 7.76 -9 3 C-8.34 3 -7.68 3 -7 3 C-7 2.01 -7 1.02 -7 0 C-4.25509788 -1.37245106 -2.87939419 -0.93580311 0 0 Z " fill="#B7CDF3" transform="translate(107,22)"/>
<path d="M0 0 C0.66 1.32 1.32 2.64 2 4 C-0.97 4.66 -3.94 5.32 -7 6 C-6.67 9.96 -6.34 13.92 -6 18 C-7.32 17.67 -8.64 17.34 -10 17 C-9.67 12.38 -9.34 7.76 -9 3 C-8.34 3 -7.68 3 -7 3 C-7 2.01 -7 1.02 -7 0 C-4.25509788 -1.37245106 -2.87939419 -0.93580311 0 0 Z " fill="#B7CDF3" transform="translate(43,22)"/>
<path d="M0 0 C3.66172475 0.62678171 6.8818995 1.64451846 10.3125 3.0625 C11.19550781 3.42472656 12.07851563 3.78695312 12.98828125 4.16015625 C13.65214844 4.43730469 14.31601562 4.71445312 15 5 C14.67 5.99 14.34 6.98 14 8 C4.48387097 8.32258065 4.48387097 8.32258065 1 6 C0.1875 2.875 0.1875 2.875 0 0 Z " fill="#B2C9F1" transform="translate(25,47)"/>
<path d="M0 0 C1.32 0.66 2.64 1.32 4 2 C3.67 2.99 3.34 3.98 3 5 C2.34 5 1.68 5 1 5 C0.34 6.98 -0.32 8.96 -1 11 C-2 8 -2 8 -1.0625 5.8125 C-0.711875 5.214375 -0.36125 4.61625 0 4 C-0.66773437 4.32613281 -1.33546875 4.65226562 -2.0234375 4.98828125 C-5.68917626 6.23424758 -8.75936724 6.22943487 -12.625 6.1875 C-13.93726562 6.18105469 -15.24953125 6.17460938 -16.6015625 6.16796875 C-20 6 -20 6 -23 5 C-22.67 4.34 -22.34 3.68 -22 3 C-16.72 3.33 -11.44 3.66 -6 4 C-6.33 3.01 -6.66 2.02 -7 1 C-6.34 1 -5.68 1 -5 1 C-5 1.66 -5 2.32 -5 3 C-3.02463255 2.65213292 -3.02463255 2.65213292 -1 2 C-0.67 1.34 -0.34 0.68 0 0 Z " fill="#3A526E" transform="translate(113,41)"/>
<path d="M0 0 C1.32 0.66 2.64 1.32 4 2 C3.67 2.99 3.34 3.98 3 5 C2.34 5 1.68 5 1 5 C0.34 6.98 -0.32 8.96 -1 11 C-2 8 -2 8 -1.0625 5.8125 C-0.711875 5.214375 -0.36125 4.61625 0 4 C-0.66773437 4.32613281 -1.33546875 4.65226562 -2.0234375 4.98828125 C-5.68917626 6.23424758 -8.75936724 6.22943487 -12.625 6.1875 C-13.93726563 6.18105469 -15.24953125 6.17460938 -16.6015625 6.16796875 C-20 6 -20 6 -23 5 C-22.67 4.34 -22.34 3.68 -22 3 C-16.72 3.33 -11.44 3.66 -6 4 C-6.33 3.01 -6.66 2.02 -7 1 C-6.34 1 -5.68 1 -5 1 C-5 1.66 -5 2.32 -5 3 C-3.02463255 2.65213292 -3.02463255 2.65213292 -1 2 C-0.67 1.34 -0.34 0.68 0 0 Z " fill="#3A536E" transform="translate(49,41)"/>
<path d="M0 0 C0.99 0 1.98 0 3 0 C3.1875 2.875 3.1875 2.875 3 6 C2.01 6.66 1.02 7.32 0 8 C-0.33 7.67 -0.66 7.34 -1 7 C-5.61184864 5.9257187 -5.61184864 5.9257187 -10 7 C-10 5.35 -10 3.7 -10 2 C-6.78548731 0.39274365 -3.56387464 0.94251815 0 1 C0 0.67 0 0.34 0 0 Z " fill="#8696B2" transform="translate(111,26)"/>
<path d="M0 0 C2.96909598 3.27301919 3.34354794 5.38065762 3.1875 9.75 C3.16042969 10.73484375 3.13335937 11.7196875 3.10546875 12.734375 C3.07066406 13.48203125 3.03585938 14.2296875 3 15 C2.01 15 1.02 15 0 15 C0 14.34 0 13.68 0 13 C-1.32 13.33 -2.64 13.66 -4 14 C-4 13.34 -4 12.68 -4 12 C-4.66 11.67 -5.32 11.34 -6 11 C-5.01 10.67 -4.02 10.34 -3 10 C-2.3185177 8.10820797 -2.3185177 8.10820797 -2 6 C-1.33333333 4 -0.66666667 2 0 0 Z " fill="#95989D" transform="translate(54,14)"/>
<path d="M0 0 C1.42514982 4.55379904 1.02500462 9.08881356 0.9375 13.80859375 C0.89826 16.95091275 0.89826 16.95091275 1.58984375 19.765625 C2 22 2 22 0.5625 24.3125 C0.046875 24.869375 -0.46875 25.42625 -1 26 C-4.34569206 17.53736714 -3.08072841 8.39624752 0 0 Z " fill="#716E72" transform="translate(74,14)"/>
<path d="M0 0 C1.42514982 4.55379904 1.02500462 9.08881356 0.9375 13.80859375 C0.89826 16.95091275 0.89826 16.95091275 1.58984375 19.765625 C2 22 2 22 0.5625 24.3125 C0.046875 24.869375 -0.46875 25.42625 -1 26 C-4.34569206 17.53736714 -3.08072841 8.39624752 0 0 Z " fill="#716E72" transform="translate(10,14)"/>
<path d="M0 0 C0.99 0.33 1.98 0.66 3 1 C2.67 1.99 2.34 2.98 2 4 C2.70125 3.505 3.4025 3.01 4.125 2.5 C7.37119719 0.8063319 9.39340156 0.74837685 13 1 C12.34 2.32 11.68 3.64 11 5 C11 4.34 11 3.68 11 3 C7.27385847 4.11854586 7.27385847 4.11854586 5 7 C2.525 6.01 2.525 6.01 0 5 C-0.33 6.65 -0.66 8.3 -1 10 C-1.66 9.67 -2.32 9.34 -3 9 C-3 7.68 -3 6.36 -3 5 C-2.34 5 -1.68 5 -1 5 C-0.67 3.35 -0.34 1.7 0 0 Z " fill="#6F7C96" transform="translate(14,41)"/>
<path d="M0 0 C2 3 2 3 3 5 C4.97888961 5.72693904 6.97954558 6.39816251 9 7 C8.443125 7.12375 7.88625 7.2475 7.3125 7.375 C4.77885636 8.05976855 2.42078968 8.99133763 0 10 C0 9.01 0 8.02 0 7 C-0.66 7 -1.32 7 -2 7 C-2.33 8.32 -2.66 9.64 -3 11 C-3.66 11 -4.32 11 -5 11 C-5.6875 8.6875 -5.6875 8.6875 -6 6 C-4.6875 4.1875 -4.6875 4.1875 -3 3 C-2.34 3 -1.68 3 -1 3 C-0.67 2.01 -0.34 1.02 0 0 Z " fill="#8395BC" transform="translate(80,35)"/>
<path d="M0 0 C2 3 2 3 3 5 C4.97888961 5.72693904 6.97954558 6.39816251 9 7 C8.443125 7.12375 7.88625 7.2475 7.3125 7.375 C4.77885636 8.05976855 2.42078968 8.99133763 0 10 C0 9.01 0 8.02 0 7 C-0.66 7 -1.32 7 -2 7 C-2.33 8.32 -2.66 9.64 -3 11 C-3.66 11 -4.32 11 -5 11 C-5.6875 8.6875 -5.6875 8.6875 -6 6 C-4.6875 4.1875 -4.6875 4.1875 -3 3 C-2.34 3 -1.68 3 -1 3 C-0.67 2.01 -0.34 1.02 0 0 Z " fill="#8395BC" transform="translate(16,35)"/>
<path d="M0 0 C2.38564077 0.57584432 4.66682784 1.22227595 7 2 C5.25 6.875 5.25 6.875 3 8 C1.00039988 8.039992 -1.00047242 8.04346799 -3 8 C-2.67 6.02 -2.34 4.04 -2 2 C-1.34 2 -0.68 2 0 2 C0 1.34 0 0.68 0 0 Z " fill="#BED4F9" transform="translate(88,32)"/>
<path d="M0 0 C2.38564077 0.57584432 4.66682784 1.22227595 7 2 C5.25 6.875 5.25 6.875 3 8 C1.00039988 8.039992 -1.00047242 8.04346799 -3 8 C-2.67 6.02 -2.34 4.04 -2 2 C-1.34 2 -0.68 2 0 2 C0 1.34 0 0.68 0 0 Z " fill="#BED4F8" transform="translate(24,32)"/>
<path d="M0 0 C0.33 0 0.66 0 1 0 C1.31985731 6.71700347 0.4793824 11.75726932 -2 18 C-2.33 18 -2.66 18 -3 18 C-3 16.35 -3 14.7 -3 13 C-3.66 13 -4.32 13 -5 13 C-5.33 10.69 -5.66 8.38 -6 6 C-4.35 6 -2.7 6 -1 6 C-0.67 4.02 -0.34 2.04 0 0 Z " fill="#707578" transform="translate(57,21)"/>
<path d="M0 0 C3.3 0 6.6 0 10 0 C10.33 0.99 10.66 1.98 11 3 C11.33 2.01 11.66 1.02 12 0 C12.33 1.65 12.66 3.3 13 5 C9.62114388 5.28526928 6.36708009 5.46087248 3 5 C0.875 2.5 0.875 2.5 0 0 Z " fill="#8AA1C0" transform="translate(94,40)"/>
<path d="M0 0 C3.3 0 6.6 0 10 0 C10.33 0.99 10.66 1.98 11 3 C11.33 2.01 11.66 1.02 12 0 C12.33 1.65 12.66 3.3 13 5 C9.62114388 5.28526928 6.36708009 5.46087248 3 5 C0.875 2.5 0.875 2.5 0 0 Z " fill="#8AA1C0" transform="translate(30,40)"/>
<path d="M0 0 C2.91517292 1.07401108 4.77810176 1.77810176 7 4 C6.01 6.64 5.02 9.28 4 12 C2.68 12 1.36 12 0 12 C-0.33 10.68 -0.66 9.36 -1 8 C-0.01 7.67 0.98 7.34 2 7 C1.34 6.01 0.68 5.02 0 4 C0 2.68 0 1.36 0 0 Z " fill="#C2C2C3" transform="translate(110,11)"/>
<path d="M0 0 C0.66 0.99 1.32 1.98 2 3 C0.9375 4.5625 0.9375 4.5625 -1 6 C-7.33333333 5.66666667 -7.33333333 5.66666667 -10 3 C-6.56492304 0.64451866 -4.21014309 -0.68272591 0 0 Z " fill="#E2E1E3" transform="translate(101,3)"/>
<path d="M0 0 C0.66 0.99 1.32 1.98 2 3 C0.9375 4.5625 0.9375 4.5625 -1 6 C-7.33333333 5.66666667 -7.33333333 5.66666667 -10 3 C-6.56492304 0.64451866 -4.21014309 -0.68272591 0 0 Z " fill="#E2E1E3" transform="translate(37,3)"/>
<path d="M0 0 C0.598125 0.20625 1.19625 0.4125 1.8125 0.625 C0.1625 0.955 -1.4875 1.285 -3.1875 1.625 C-2.6925 2.5325 -2.1975 3.44 -1.6875 4.375 C-0.1875 7.625 -0.1875 7.625 -0.1875 11.625 C0.4725 12.285 1.1325 12.945 1.8125 13.625 C1.4825 14.615 1.1525 15.605 0.8125 16.625 C0.1525 16.295 -0.5075 15.965 -1.1875 15.625 C-0.8575 14.965 -0.5275 14.305 -0.1875 13.625 C-2.1675 13.955 -4.1475 14.285 -6.1875 14.625 C-5.1975 14.295 -4.2075 13.965 -3.1875 13.625 C-3.8475 9.665 -4.5075 5.705 -5.1875 1.625 C-2.1875 -0.375 -2.1875 -0.375 0 0 Z " fill="#97B1D7" transform="translate(104.1875,26.375)"/>
<path d="M0 0 C0.598125 0.20625 1.19625 0.4125 1.8125 0.625 C0.1625 0.955 -1.4875 1.285 -3.1875 1.625 C-2.6925 2.5325 -2.1975 3.44 -1.6875 4.375 C-0.1875 7.625 -0.1875 7.625 -0.1875 11.625 C0.4725 12.285 1.1325 12.945 1.8125 13.625 C1.4825 14.615 1.1525 15.605 0.8125 16.625 C0.1525 16.295 -0.5075 15.965 -1.1875 15.625 C-0.8575 14.965 -0.5275 14.305 -0.1875 13.625 C-2.1675 13.955 -4.1475 14.285 -6.1875 14.625 C-5.1975 14.295 -4.2075 13.965 -3.1875 13.625 C-3.8475 9.665 -4.5075 5.705 -5.1875 1.625 C-2.1875 -0.375 -2.1875 -0.375 0 0 Z " fill="#97B1D7" transform="translate(40.1875,26.375)"/>
<path d="M0 0 C0.268125 0.61875 0.53625 1.2375 0.8125 1.875 C1.95556848 4.2995233 1.95556848 4.2995233 5 6 C5 6.66 5 7.32 5 8 C2.1875 8.625 2.1875 8.625 -1 9 C-4 7 -4 7 -4.6875 4.375 C-4.790625 3.59125 -4.89375 2.8075 -5 2 C-2.525 2.99 -2.525 2.99 0 4 C0 2.68 0 1.36 0 0 Z " fill="#B0C0DC" transform="translate(100,13)"/>
<path d="M0 0 C0.268125 0.61875 0.53625 1.2375 0.8125 1.875 C1.95556848 4.2995233 1.95556848 4.2995233 5 6 C5 6.66 5 7.32 5 8 C2.1875 8.625 2.1875 8.625 -1 9 C-4 7 -4 7 -4.6875 4.375 C-4.790625 3.59125 -4.89375 2.8075 -5 2 C-2.525 2.99 -2.525 2.99 0 4 C0 2.68 0 1.36 0 0 Z " fill="#B0C0DC" transform="translate(36,13)"/>
<path d="M0 0 C2.97 0.495 2.97 0.495 6 1 C6.33 2.65 6.66 4.3 7 6 C3.37 6 -0.26 6 -4 6 C-4 5.34 -4 4.68 -4 4 C-2.35 3.34 -0.7 2.68 1 2 C0.67 1.34 0.34 0.68 0 0 Z " fill="#5B6F91" transform="translate(90,26)"/>
<path d="M0 0 C2.97 0.495 2.97 0.495 6 1 C6.33 2.65 6.66 4.3 7 6 C3.37 6 -0.26 6 -4 6 C-4 5.34 -4 4.68 -4 4 C-2.35 3.34 -0.7 2.68 1 2 C0.67 1.34 0.34 0.68 0 0 Z " fill="#5B6F91" transform="translate(26,26)"/>
<path d="M0 0 C7.75 -0.125 7.75 -0.125 10 1 C9.67 1.99 9.34 2.98 9 4 C6.36 4 3.72 4 1 4 C0.67 2.68 0.34 1.36 0 0 Z " fill="#B2C9F0" transform="translate(94,51)"/>
<path d="M0 0 C0 3.3 0 6.6 0 10 C-1.32 10 -2.64 10 -4 10 C-3.67 8.02 -3.34 6.04 -3 4 C-4.65 4 -6.3 4 -8 4 C-5.87162321 1.87162321 -3.16570896 0 0 0 Z " fill="#A7BFE7" transform="translate(98,30)"/>
<path d="M0 0 C0 3.3 0 6.6 0 10 C-1.32 10 -2.64 10 -4 10 C-3.67 8.02 -3.34 6.04 -3 4 C-4.65 4 -6.3 4 -8 4 C-5.87162321 1.87162321 -3.16570896 0 0 0 Z " fill="#A7BFE7" transform="translate(34,30)"/>
<path d="M0 0 C0 0.33 0 0.66 0 1 C-0.84884766 1.16435547 -0.84884766 1.16435547 -1.71484375 1.33203125 C-2.44832031 1.49058594 -3.18179688 1.64914063 -3.9375 1.8125 C-4.66839844 1.96332031 -5.39929688 2.11414063 -6.15234375 2.26953125 C-7.06693359 2.63111328 -7.06693359 2.63111328 -8 3 C-8.33 3.99 -8.66 4.98 -9 6 C-10.65 6.33 -12.3 6.66 -14 7 C-13.34 5.68 -12.68 4.36 -12 3 C-14.31 3.33 -16.62 3.66 -19 4 C-13.06147771 0.04098514 -6.91895619 -0.24710558 0 0 Z " fill="#878584" transform="translate(102,2)"/>
<path d="M0 0 C0 0.33 0 0.66 0 1 C-0.84884766 1.16435547 -0.84884766 1.16435547 -1.71484375 1.33203125 C-2.44832031 1.49058594 -3.18179688 1.64914063 -3.9375 1.8125 C-4.66839844 1.96332031 -5.39929688 2.11414063 -6.15234375 2.26953125 C-7.06693359 2.63111328 -7.06693359 2.63111328 -8 3 C-8.33 3.99 -8.66 4.98 -9 6 C-10.65 6.33 -12.3 6.66 -14 7 C-13.34 5.68 -12.68 4.36 -12 3 C-14.31 3.33 -16.62 3.66 -19 4 C-13.06147771 0.04098514 -6.91895619 -0.24710558 0 0 Z " fill="#878584" transform="translate(38,2)"/>
<path d="M0 0 C4.50884026 2.31883213 6.93906776 5.06451569 10 9 C5.50347222 9.36458333 5.50347222 9.36458333 3.1875 7.6875 C2 6 2 6 2 3 C1.01 3 0.02 3 -1 3 C-0.67 2.01 -0.34 1.02 0 0 Z " fill="#909090" transform="translate(108,5)"/>
<path d="M0 0 C4.50884026 2.31883213 6.93906776 5.06451569 10 9 C5.50347222 9.36458333 5.50347222 9.36458333 3.1875 7.6875 C2 6 2 6 2 3 C1.01 3 0.02 3 -1 3 C-0.67 2.01 -0.34 1.02 0 0 Z " fill="#909090" transform="translate(44,5)"/>
<path d="M0 0 C3.8063457 0.67170806 7.35206816 1.72746564 11 3 C11 3.33 11 3.66 11 4 C9.02 4 7.04 4 5 4 C4.67 4.99 4.34 5.98 4 7 C3.01 6.67 2.02 6.34 1 6 C0.67 4.02 0.34 2.04 0 0 Z " fill="#96ADD8" transform="translate(25,47)"/>
<path d="M0 0 C-0.99 0.66 -1.98 1.32 -3 2 C-2.01 2.99 -1.02 3.98 0 5 C-1.11375 4.979375 -2.2275 4.95875 -3.375 4.9375 C-6.83215921 4.73619282 -6.83215921 4.73619282 -9 6 C-9 4.35 -9 2.7 -9 1 C-6.04335481 -0.4783226 -3.25770263 -0.06032783 0 0 Z " fill="#526380" transform="translate(110,27)"/>
<path d="M0 0 C-0.99 0.66 -1.98 1.32 -3 2 C-2.01 2.99 -1.02 3.98 0 5 C-1.11375 4.979375 -2.2275 4.95875 -3.375 4.9375 C-6.83215921 4.73619282 -6.83215921 4.73619282 -9 6 C-9 4.35 -9 2.7 -9 1 C-6.04335481 -0.4783226 -3.25770263 -0.06032783 0 0 Z " fill="#526380" transform="translate(46,27)"/>
<path d="M0 0 C-0.66 1.65 -1.32 3.3 -2 5 C-2.99 5 -3.98 5 -5 5 C-5.66 5.66 -6.32 6.32 -7 7 C-7.33 5.68 -7.66 4.36 -8 3 C-8.99 3 -9.98 3 -11 3 C-7.88866897 -0.11133103 -4.26881718 0 0 0 Z " fill="#C3C1C4" transform="translate(90,5)"/>
<path d="M0 0 C-0.66 1.65 -1.32 3.3 -2 5 C-2.99 5 -3.98 5 -5 5 C-5.66 5.66 -6.32 6.32 -7 7 C-7.33 5.68 -7.66 4.36 -8 3 C-8.99 3 -9.98 3 -11 3 C-7.88866897 -0.11133103 -4.26881718 0 0 0 Z " fill="#C3C1C4" transform="translate(26,5)"/>
<path d="M0 0 C4.95 0.33 9.9 0.66 15 1 C10.74975698 4.18768226 9.99857345 4.51005852 5 4 C2.125 3 2.125 3 0 2 C0 1.34 0 0.68 0 0 Z " fill="#5786AA" transform="translate(26,46)"/>
<path d="M0 0 C0.33 0 0.66 0 1 0 C1 3.63 1 7.26 1 11 C0.01 11 -0.98 11 -2 11 C-2 10.34 -2 9.68 -2 9 C-2.66 9 -3.32 9 -4 9 C-4 7.35 -4 5.7 -4 4 C-3.01 4.495 -3.01 4.495 -2 5 C-1.34 3.35 -0.68 1.7 0 0 Z " fill="#89898C" transform="translate(56,18)"/>
<path d="M0 0 C0.66 0 1.32 0 2 0 C1.34 2.97 0.68 5.94 0 9 C-0.99 9 -1.98 9 -3 9 C-3.75 7.3125 -3.75 7.3125 -4 5 C-2.1875 2.25 -2.1875 2.25 0 0 Z " fill="#E9E9EB" transform="translate(80,14)"/>
<path d="M0 0 C0.66 0 1.32 0 2 0 C1.34 2.97 0.68 5.94 0 9 C-0.99 9 -1.98 9 -3 9 C-3.75 7.3125 -3.75 7.3125 -4 5 C-2.1875 2.25 -2.1875 2.25 0 0 Z " fill="#E9E9EB" transform="translate(16,14)"/>
<path d="M0 0 C3.875 0.875 3.875 0.875 5 2 C5.04092937 4.33297433 5.04241723 6.66705225 5 9 C3.35 9.33 1.7 9.66 0 10 C-0.33 9.34 -0.66 8.68 -1 8 C0.65 7.67 2.3 7.34 4 7 C4 5.68 4 4.36 4 3 C2.02 3 0.04 3 -2 3 C-1.34 2.01 -0.68 1.02 0 0 Z " fill="#A1B9DD" transform="translate(107,32)"/>
<path d="M0 0 C3.875 0.875 3.875 0.875 5 2 C5.04092937 4.33297433 5.04241723 6.66705225 5 9 C3.35 9.33 1.7 9.66 0 10 C-0.33 9.34 -0.66 8.68 -1 8 C0.65 7.67 2.3 7.34 4 7 C4 5.68 4 4.36 4 3 C2.02 3 0.04 3 -2 3 C-1.34 2.01 -0.68 1.02 0 0 Z " fill="#A1B9DD" transform="translate(43,32)"/>
<path d="M0 0 C0.66 0 1.32 0 2 0 C2.33 2.31 2.66 4.62 3 7 C1.68 7 0.36 7 -1 7 C-1.625 5.1875 -1.625 5.1875 -2 3 C-1.34 2.01 -0.68 1.02 0 0 Z " fill="#A3A6A9" transform="translate(117,14)"/>
<path d="M0 0 C6.93 0.495 6.93 0.495 14 1 C10 4 10 4 7 4.4375 C4 4 4 4 0 0 Z " fill="#5585A9" transform="translate(91,46)"/>
<path d="M0 0 C0.99 0.33 1.98 0.66 3 1 C3 2.65 3 4.3 3 6 C2.01 5.67 1.02 5.34 0 5 C-0.33 6.65 -0.66 8.3 -1 10 C-1.66 9.67 -2.32 9.34 -3 9 C-3 7.68 -3 6.36 -3 5 C-2.34 5 -1.68 5 -1 5 C-0.67 3.35 -0.34 1.7 0 0 Z " fill="#7D828D" transform="translate(78,41)"/>
<path d="M0 0 C0.33 0 0.66 0 1 0 C1 3.63 1 7.26 1 11 C0.01 11 -0.98 11 -2 11 C-2.33 8.69 -2.66 6.38 -3 4 C-2.34 3.67 -1.68 3.34 -1 3 C-0.67 2.01 -0.34 1.02 0 0 Z " fill="#8C8B8D" transform="translate(120,18)"/>
<path d="M0 0 C0.66 0 1.32 0 2 0 C2.33 3.3 2.66 6.6 3 10 C1.68 9.67 0.36 9.34 -1 9 C-0.67 6.03 -0.34 3.06 0 0 Z " fill="#C7DCFB" transform="translate(98,30)"/>
<path d="M0 0 C0.66 0 1.32 0 2 0 C2.33 3.3 2.66 6.6 3 10 C1.68 9.67 0.36 9.34 -1 9 C-0.67 6.03 -0.34 3.06 0 0 Z " fill="#C7DCFB" transform="translate(34,30)"/>
<path d="M0 0 C2.00720923 0.28674418 4.0085944 0.61866701 6 1 C5.40138258 3.35171131 4.73075648 5.6859378 4 8 C3.01 8.495 3.01 8.495 2 9 C1.814375 8.13375 1.814375 8.13375 1.625 7.25 C0.99351176 4.97664233 0.11141809 3.0746471 -1 1 C-0.67 0.67 -0.34 0.34 0 0 Z " fill="#A5B9E4" transform="translate(82,31)"/>
<path d="M0 0 C2.00720923 0.28674418 4.0085944 0.61866701 6 1 C5.40138258 3.35171131 4.73075648 5.6859378 4 8 C3.01 8.495 3.01 8.495 2 9 C1.814375 8.13375 1.814375 8.13375 1.625 7.25 C0.99351176 4.97664233 0.11141809 3.0746471 -1 1 C-0.67 0.67 -0.34 0.34 0 0 Z " fill="#A5B9E4" transform="translate(18,31)"/>
<path d="M0 0 C1.03115279 3.26913624 0.9638984 5.86041348 0.5625 9.25 C0.46066406 10.14203125 0.35882813 11.0340625 0.25390625 11.953125 C0.12822266 12.96632813 0.12822266 12.96632813 0 14 C-0.66 14 -1.32 14 -2 14 C-2.1799928 8.78020872 -1.97094808 4.92737019 0 0 Z " fill="#979393" transform="translate(74,14)"/>
<path d="M0 0 C1.03115279 3.26913624 0.9638984 5.86041348 0.5625 9.25 C0.46066406 10.14203125 0.35882813 11.0340625 0.25390625 11.953125 C0.12822266 12.96632813 0.12822266 12.96632813 0 14 C-0.66 14 -1.32 14 -2 14 C-2.1799928 8.78020872 -1.97094808 4.92737019 0 0 Z " fill="#979393" transform="translate(10,14)"/>
<path d="M0 0 C5.94 1.485 5.94 1.485 12 3 C10 5 10 5 7.6875 5.25 C4.79489025 4.98092002 2.63077849 4.20264159 0 3 C0 2.01 0 1.02 0 0 Z " fill="#203240" transform="translate(90,54)"/>
<path d="M0 0 C5.94 1.485 5.94 1.485 12 3 C10 5 10 5 7.6875 5.25 C4.79489025 4.98092002 2.63077849 4.20264159 0 3 C0 2.01 0 1.02 0 0 Z " fill="#203240" transform="translate(26,54)"/>
<path d="M0 0 C2.375 0.1875 2.375 0.1875 5 1 C6.3125 3.5625 6.3125 3.5625 7 6 C5.02 5.01 3.04 4.02 1 3 C0.67 3.99 0.34 4.98 0 6 C-0.66 5.67 -1.32 5.34 -2 5 C-1.34 3.35 -0.68 1.7 0 0 Z " fill="#434B54" transform="translate(78,46)"/>
<path d="M0 0 C2.375 0.1875 2.375 0.1875 5 1 C6.3125 3.5625 6.3125 3.5625 7 6 C5.02 5.01 3.04 4.02 1 3 C0.67 3.99 0.34 4.98 0 6 C-0.66 5.67 -1.32 5.34 -2 5 C-1.34 3.35 -0.68 1.7 0 0 Z " fill="#434B54" transform="translate(14,46)"/>
<path d="M0 0 C0.66 0 1.32 0 2 0 C2.25 6.625 2.25 6.625 0 10 C-1.32 10 -2.64 10 -4 10 C-4 9.34 -4 8.68 -4 8 C-3.01 7.67 -2.02 7.34 -1 7 C-0.67 4.69 -0.34 2.38 0 0 Z " fill="#849BC3" transform="translate(112,34)"/>
<path d="M0 0 C0.66 0 1.32 0 2 0 C2.25 6.625 2.25 6.625 0 10 C-1.32 10 -2.64 10 -4 10 C-4 9.34 -4 8.68 -4 8 C-3.01 7.67 -2.02 7.34 -1 7 C-0.67 4.69 -0.34 2.38 0 0 Z " fill="#849AC3" transform="translate(48,34)"/>
<path d="M0 0 C0.99 0.33 1.98 0.66 3 1 C3 1.66 3 2.32 3 3 C2.01 3.495 2.01 3.495 1 4 C0.34786708 6.02463255 0.34786708 6.02463255 0 8 C-0.66 8 -1.32 8 -2 8 C-2.6875 5.6875 -2.6875 5.6875 -3 3 C-1.5625 1.1875 -1.5625 1.1875 0 0 Z " fill="#9999A2" transform="translate(77,38)"/>
<path d="M0 0 C0.99 0.33 1.98 0.66 3 1 C3 1.66 3 2.32 3 3 C2.01 3.495 2.01 3.495 1 4 C0.34786708 6.02463255 0.34786708 6.02463255 0 8 C-0.66 8 -1.32 8 -2 8 C-2.6875 5.6875 -2.6875 5.6875 -3 3 C-1.5625 1.1875 -1.5625 1.1875 0 0 Z " fill="#9999A1" transform="translate(13,38)"/>
<path d="M0 0 C0.99 0.33 1.98 0.66 3 1 C3 1.99 3 2.98 3 4 C4.32 4.66 5.64 5.32 7 6 C7 6.66 7 7.32 7 8 C6.01 8.33 5.02 8.66 4 9 C1.80808632 6.80808632 1.72130648 5.88522592 1 3 C0.34 2.34 -0.32 1.68 -1 1 C-0.67 0.67 -0.34 0.34 0 0 Z " fill="#D5D5D6" transform="translate(106,11)"/>
<path d="M0 0 C0.99 0.33 1.98 0.66 3 1 C3 1.99 3 2.98 3 4 C4.32 4.66 5.64 5.32 7 6 C7 6.66 7 7.32 7 8 C6.01 8.33 5.02 8.66 4 9 C1.80808632 6.80808632 1.72130648 5.88522592 1 3 C0.34 2.34 -0.32 1.68 -1 1 C-0.67 0.67 -0.34 0.34 0 0 Z " fill="#D5D5D6" transform="translate(42,11)"/>
<path d="M0 0 C2.475 0.99 2.475 0.99 5 2 C5 3.32 5 4.64 5 6 C2.69 5.34 0.38 4.68 -2 4 C-1.34 2.68 -0.68 1.36 0 0 Z " fill="#C5CBD9" transform="translate(95,11)"/>
<path d="M0 0 C2.475 0.99 2.475 0.99 5 2 C5 3.32 5 4.64 5 6 C2.69 5.34 0.38 4.68 -2 4 C-1.34 2.68 -0.68 1.36 0 0 Z " fill="#C5CBD9" transform="translate(31,11)"/>
<path d="M0 0 C0.93423645 3.01031744 1.04449911 3.86650268 0 7 C-2.0625 8.1875 -2.0625 8.1875 -4 9 C-4 4.91591468 -2.8670615 2.8670615 0 0 Z " fill="#B7B8B9" transform="translate(53,14)"/>
<path d="M0 0 C1.35439668 2.70879335 1.06501451 5.00933268 1 8 C0.01 7.67 -0.98 7.34 -2 7 C-1.67 6.34 -1.34 5.68 -1 5 C-2.32 4.34 -3.64 3.68 -5 3 C-3.35 2.01 -1.7 1.02 0 0 Z " fill="#748CB4" transform="translate(41,47)"/>
<path d="M0 0 C1.35439668 2.70879335 1.06501451 5.00933268 1 8 C0.01 7.67 -0.98 7.34 -2 7 C-1.67 6.34 -1.34 5.68 -1 5 C-2.32 4.34 -3.64 3.68 -5 3 C-3.35 2.01 -1.7 1.02 0 0 Z " fill="#748CB4" transform="translate(105,47)"/>
<path d="M0 0 C0.66 0 1.32 0 2 0 C2 2.31 2 4.62 2 7 C1.38125 7.144375 0.7625 7.28875 0.125 7.4375 C-2.03258322 7.93152225 -2.03258322 7.93152225 -4 9 C-3.67 7.35 -3.34 5.7 -3 4 C-2.01 3.67 -1.02 3.34 0 3 C0 2.01 0 1.02 0 0 Z " fill="#B8B9C1" transform="translate(78,32)"/>
<path d="M0 0 C0.66 0 1.32 0 2 0 C2 2.31 2 4.62 2 7 C1.38125 7.144375 0.7625 7.28875 0.125 7.4375 C-2.03258322 7.93152225 -2.03258322 7.93152225 -4 9 C-3.67 7.35 -3.34 5.7 -3 4 C-2.01 3.67 -1.02 3.34 0 3 C0 2.01 0 1.02 0 0 Z " fill="#B8B9C1" transform="translate(14,32)"/>
<path d="M0 0 C1.65 0.33 3.3 0.66 5 1 C4.01 1.33 3.02 1.66 2 2 C2.33 3.65 2.66 5.3 3 7 C1.68 6.34 0.36 5.68 -1 5 C-0.67 3.35 -0.34 1.7 0 0 Z " fill="#B6CCEB" transform="translate(103,32)"/>
<path d="M0 0 C1.65 0.33 3.3 0.66 5 1 C4.01 1.33 3.02 1.66 2 2 C2.33 3.65 2.66 5.3 3 7 C1.68 6.34 0.36 5.68 -1 5 C-0.67 3.35 -0.34 1.7 0 0 Z " fill="#B6CBEB" transform="translate(39,32)"/>
<path d="M0 0 C3.3 0 6.6 0 10 0 C8.68 1.32 7.36 2.64 6 4 C1.125 2.25 1.125 2.25 0 0 Z " fill="#486688" transform="translate(94,40)"/>
<path d="M0 0 C3.3 0 6.6 0 10 0 C8.68 1.32 7.36 2.64 6 4 C1.125 2.25 1.125 2.25 0 0 Z " fill="#486688" transform="translate(30,40)"/>
<path d="M0 0 C2.31 0 4.62 0 7 0 C6.01 1.485 6.01 1.485 5 3 C1.875 3.1875 1.875 3.1875 -1 3 C-0.67 2.01 -0.34 1.02 0 0 Z " fill="#A2A5B4" transform="translate(88,9)"/>
<path d="M0 0 C2.31 0 4.62 0 7 0 C6.01 1.485 6.01 1.485 5 3 C1.875 3.1875 1.875 3.1875 -1 3 C-0.67 2.01 -0.34 1.02 0 0 Z " fill="#A2A5B5" transform="translate(24,9)"/>
<path d="M0 0 C0.66 0.33 1.32 0.66 2 1 C0.515 4.465 0.515 4.465 -1 8 C-1.66 7.34 -2.32 6.68 -3 6 C-3 4.68 -3 3.36 -3 2 C-2.01 1.34 -1.02 0.68 0 0 Z " fill="#7B91BC" transform="translate(23,44)"/>
<path d="M0 0 C0.66 0 1.32 0 2 0 C2.66 1.98 3.32 3.96 4 6 C2.68 6.33 1.36 6.66 0 7 C0 4.69 0 2.38 0 0 Z " fill="#7C8493" transform="translate(114,36)"/>
<path d="M0 0 C0.66 0 1.32 0 2 0 C2.66 1.98 3.32 3.96 4 6 C2.68 6.33 1.36 6.66 0 7 C0 4.69 0 2.38 0 0 Z " fill="#7C8493" transform="translate(50,36)"/>
<path d="M0 0 C0 0.66 0 1.32 0 2 C-2.70879335 3.35439668 -5.00933268 3.06501451 -8 3 C-8 2.34 -8 1.68 -8 1 C-5.07175348 0.02391783 -3.04386724 -0.08226668 0 0 Z " fill="#424E63" transform="translate(94,29)"/>
<path d="M0 0 C0 0.66 0 1.32 0 2 C-2.70879335 3.35439668 -5.00933268 3.06501451 -8 3 C-8 2.34 -8 1.68 -8 1 C-5.07175348 0.02391783 -3.04386724 -0.08226668 0 0 Z " fill="#424E63" transform="translate(30,29)"/>
<path d="M0 0 C0.66 0.33 1.32 0.66 2 1 C2 1.66 2 2.32 2 3 C1.34 3 0.68 3 0 3 C0 3.66 0 4.32 0 5 C0.99 4.67 1.98 4.34 3 4 C2.67 4.99 2.34 5.98 2 7 C0.68 7 -0.64 7 -2 7 C-1.34 4.69 -0.68 2.38 0 0 Z " fill="#D5D5DC" transform="translate(17,18)"/>
<path d="M0 0 C1.98 0 3.96 0 6 0 C5.401875 0.226875 4.80375 0.45375 4.1875 0.6875 C1.43648112 2.33811133 0.47515363 4.1972081 -1 7 C-2 4 -2 4 -1.0625 1.8125 C-0.5365625 0.9153125 -0.5365625 0.9153125 0 0 Z " fill="#BCCCE7" transform="translate(87,13)"/>
<path d="M0 0 C1.98 0 3.96 0 6 0 C5.401875 0.226875 4.80375 0.45375 4.1875 0.6875 C1.43648112 2.33811133 0.47515363 4.1972081 -1 7 C-2 4 -2 4 -1.0625 1.8125 C-0.5365625 0.9153125 -0.5365625 0.9153125 0 0 Z " fill="#BCCCE7" transform="translate(23,13)"/>
<path d="M0 0 C2.0625 0.4375 2.0625 0.4375 4 1 C1.03 3.475 1.03 3.475 -2 6 C-1.125 1.125 -1.125 1.125 0 0 Z " fill="#303D47" transform="translate(106,54)"/>
<path d="M0 0 C2.0625 0.4375 2.0625 0.4375 4 1 C1.03 3.475 1.03 3.475 -2 6 C-1.125 1.125 -1.125 1.125 0 0 Z " fill="#303D47" transform="translate(42,54)"/>
<path d="M0 0 C1.32 0.33 2.64 0.66 4 1 C3.67 1.99 3.34 2.98 3 4 C0.36 4 -2.28 4 -5 4 C-5 3.67 -5 3.34 -5 3 C-3.35 2.67 -1.7 2.34 0 2 C0 1.34 0 0.68 0 0 Z " fill="#94ACD6" transform="translate(100,51)"/>
<path d="M0 0 C1.32 0.33 2.64 0.66 4 1 C3.67 1.99 3.34 2.98 3 4 C0.36 4 -2.28 4 -5 4 C-5 3.67 -5 3.34 -5 3 C-3.35 2.67 -1.7 2.34 0 2 C0 1.34 0 0.68 0 0 Z " fill="#94ACD6" transform="translate(36,51)"/>
<path d="M0 0 C0.33 0.99 0.66 1.98 1 3 C2.32 3 3.64 3 5 3 C4.67 4.32 4.34 5.64 4 7 C3.01 6.67 2.02 6.34 1 6 C0.67 4.02 0.34 2.04 0 0 Z " fill="#9DB3DF" transform="translate(89,47)"/>
<path d="M0 0 C0.99 0 1.98 0 3 0 C2.39816251 2.02045442 1.72693904 4.02111039 1 6 C0.01 6.495 0.01 6.495 -1 7 C-0.67 4.69 -0.34 2.38 0 0 Z " fill="#91A5D0" transform="translate(106,47)"/>
<path d="M0 0 C0.99 0 1.98 0 3 0 C2.39816251 2.02045442 1.72693904 4.02111039 1 6 C0.01 6.495 0.01 6.495 -1 7 C-0.67 4.69 -0.34 2.38 0 0 Z " fill="#91A5D0" transform="translate(42,47)"/>
</svg>
