<?xml version="1.0" encoding="UTF-8"?>
<svg version="1.1" xmlns="http://www.w3.org/2000/svg" width="128" height="64">
<path d="M0 0 C5.85103061 4.36348045 10.65020473 8.9506142 13 16 C13.87692724 24.9154269 10.97151039 33.05697922 7 41 C6.34 41 5.68 41 5 41 C4.7215625 42.2375 4.7215625 42.2375 4.4375 43.5 C2.54040647 48.11901032 -0.25617639 51.6905863 -4 55 C-9.38606315 57.01430004 -15.7109536 56.25913733 -21.3125 55.625 C-25.66804259 52.99141611 -27.08986281 48.58094847 -29 44 C-29.66 44.99 -30.32 45.98 -31 47 C-31.66 47 -32.32 47 -33 47 C-37.16619447 33.55191181 -39.71345776 22.35859269 -34.8125 8.6875 C-30.36969431 2.09989156 -25.41912012 -0.75884107 -17.70703125 -2.53125 C-11.27952205 -3.64423861 -5.71722422 -3.53745464 0 0 Z " fill="#B8B4AF" transform="translate(45,5)"/>
<path d="M0 0 C5.85103061 4.36348045 10.65020473 8.9506142 13 16 C13.87692724 24.9154269 10.97151039 33.05697922 7 41 C6.34 41 5.68 41 5 41 C4.7215625 42.2375 4.7215625 42.2375 4.4375 43.5 C2.54040647 48.11901032 -0.25617639 51.6905863 -4 55 C-9.38606315 57.01430004 -15.7109536 56.25913733 -21.3125 55.625 C-25.66804259 52.99141611 -27.08986281 48.58094847 -29 44 C-29.66 44.99 -30.32 45.98 -31 47 C-31.66 47 -32.32 47 -33 47 C-37.16619447 33.55191181 -39.71345776 22.35859269 -34.8125 8.6875 C-30.36969431 2.09989156 -25.41912012 -0.75884107 -17.70703125 -2.53125 C-11.27952205 -3.64423861 -5.71722422 -3.53745464 0 0 Z " fill="#BAB7B3" transform="translate(109,5)"/>
<path d="M0 0 C7.57626706 5.49890351 7.57626706 5.49890351 8.734375 9.6015625 C9.02610695 12.23573036 9.06280616 13.57072879 8 16 C6.35353315 17.68662458 4.68816933 19.35511706 3 21 C3 21.66 3 22.32 3 23 C-0.63 23 -4.26 23 -8 23 C-7.34 23.99 -6.68 24.98 -6 26 C-3.67284 26.37400786 -1.33882138 26.70764733 1 27 C3 29 3 29 3.125 32.625 C3.08375 33.73875 3.0425 34.8525 3 36 C0.525 36.495 0.525 36.495 -2 37 C-2.33 36.01 -2.66 35.02 -3 34 C-4.485 33.505 -4.485 33.505 -6 33 C-6.33 33.99 -6.66 34.98 -7 36 C-9.31 36 -11.62 36 -14 36 C-13.34 37.32 -12.68 38.64 -12 40 C-13.65 39.67 -15.3 39.34 -17 39 C-16.67 37.35 -16.34 35.7 -16 34 C-18.64 34.33 -21.28 34.66 -24 35 C-23.505 32.03 -23.505 32.03 -23 29 C-22.34 29 -21.68 29 -21 29 C-21 28.34 -21 27.68 -21 27 C-17.04 26.505 -17.04 26.505 -13 26 C-12.34 24.35 -11.68 22.7 -11 21 C-15.29 21 -19.58 21 -24 21 C-24 20.34 -24 19.68 -24 19 C-23.01 18.34 -22.02 17.68 -21 17 C-21.66 16.34 -22.32 15.68 -23 15 C-23.45375 15.495 -23.9075 15.99 -24.375 16.5 C-26 18 -26 18 -28 18 C-28 17.34 -28 16.68 -28 16 C-27.34 16 -26.68 16 -26 16 C-26.33 15.34 -26.66 14.68 -27 14 C-27.66 15.32 -28.32 16.64 -29 18 C-29.99 18 -30.98 18 -32 18 C-32.6875 16.3125 -32.6875 16.3125 -33 14 C-32.01810813 12.32260138 -31.01866229 10.65532623 -30 9 C-30.33 8.01 -30.66 7.02 -31 6 C-29.57533413 2.55220267 -28.53734519 1.25654374 -25.14453125 -0.36328125 C-8.34631976 -5.14870375 -8.34631976 -5.14870375 0 0 Z " fill="#BCA39A" transform="translate(45,5)"/>
<path d="M0 0 C7.57626706 5.49890351 7.57626706 5.49890351 8.734375 9.6015625 C9.02610695 12.23573036 9.06280616 13.57072879 8 16 C6.35353315 17.68662458 4.68816933 19.35511706 3 21 C3 21.66 3 22.32 3 23 C-0.63 23 -4.26 23 -8 23 C-7.34 23.99 -6.68 24.98 -6 26 C-3.67284 26.37400786 -1.33882138 26.70764733 1 27 C3 29 3 29 3.125 32.625 C3.08375 33.73875 3.0425 34.8525 3 36 C0.525 36.495 0.525 36.495 -2 37 C-2.33 36.01 -2.66 35.02 -3 34 C-4.485 33.505 -4.485 33.505 -6 33 C-6.33 33.99 -6.66 34.98 -7 36 C-8.32 36 -9.64 36 -11 36 C-12.52474938 30.91750205 -11.62168072 26.18067268 -11 21 C-15.29 21 -19.58 21 -24 21 C-24 20.34 -24 19.68 -24 19 C-23.01 18.34 -22.02 17.68 -21 17 C-21.66 16.34 -22.32 15.68 -23 15 C-23.45375 15.495 -23.9075 15.99 -24.375 16.5 C-26 18 -26 18 -28 18 C-28 17.34 -28 16.68 -28 16 C-27.34 16 -26.68 16 -26 16 C-26.33 15.34 -26.66 14.68 -27 14 C-27.66 15.32 -28.32 16.64 -29 18 C-29.99 18 -30.98 18 -32 18 C-32.6875 16.3125 -32.6875 16.3125 -33 14 C-32.01810813 12.32260138 -31.01866229 10.65532623 -30 9 C-30.33 8.01 -30.66 7.02 -31 6 C-29.57533413 2.55220267 -28.53734519 1.25654374 -25.14453125 -0.36328125 C-8.34631976 -5.14870375 -8.34631976 -5.14870375 0 0 Z " fill="#BCA39A" transform="translate(109,5)"/>
<path d="M0 0 C3.38937225 4.27355632 4.39061877 7.65750852 4.36328125 13.1796875 C3.53628649 19.60001243 0.88451845 26.2309631 -2 32 C-2.66 32 -3.32 32 -4 32 C-4.2784375 33.2375 -4.2784375 33.2375 -4.5625 34.5 C-6.45959353 39.11901032 -9.25617639 42.6905863 -13 46 C-18.38606315 48.01430004 -24.7109536 47.25913733 -30.3125 46.625 C-34.66804259 43.99141611 -36.08986281 39.58094847 -38 35 C-38.66 35.99 -39.32 36.98 -40 38 C-40.66 37.67 -41.32 37.34 -42 37 C-41.34 35.35 -40.68 33.7 -40 32 C-37.625 32.1875 -37.625 32.1875 -35 33 C-34.690625 33.804375 -34.38125 34.60875 -34.0625 35.4375 C-33.21930932 38.32253707 -33.21930932 38.32253707 -30 39.25 C-29.01 39.4975 -28.02 39.745 -27 40 C-26.34 40.33 -25.68 40.66 -25 41 C-19.95624681 41.30351789 -14.90739626 41.308639 -10 40 C-10 39.01 -10 38.02 -10 37 C-9.01 37 -8.02 37 -7 37 C-6.67 35.68 -6.34 34.36 -6 33 C-7.98 33 -9.96 33 -12 33 C-12.33 34.32 -12.66 35.64 -13 37 C-22.85828397 36.78943471 -22.85828397 36.78943471 -26.125 33.4375 C-26.74375 32.633125 -27.3625 31.82875 -28 31 C-25.69 31 -23.38 31 -21 31 C-21.99 29.35 -22.98 27.7 -24 26 C-21.36 26.33 -18.72 26.66 -16 27 C-15.67 25.68 -15.34 24.36 -15 23 C-14.4225 23.66 -13.845 24.32 -13.25 25 C-11.00346023 27.44290923 -11.00346023 27.44290923 -7 27 C-6.95758277 24.66705225 -6.95907063 22.33297433 -7 20 C-9.00654512 17.99345488 -12.31355369 18.28278382 -15 18 C-15.66 18.33 -16.32 18.66 -17 19 C-17 17.35 -17 15.7 -17 14 C-14.23798732 12.61899366 -11.91003504 13.06812281 -8.875 13.2578125 C-8.25625 13.17273437 -7.6375 13.08765625 -7 13 C-6.34 12.01 -5.68 11.02 -5 10 C-4.34 10 -3.68 10 -3 10 C-2.855625 9.401875 -2.71125 8.80375 -2.5625 8.1875 C-1.84801717 5.40895565 -0.9070752 2.7212256 0 0 Z " fill="#A07465" transform="translate(54,14)"/>
<path d="M0 0 C3.38937225 4.27355632 4.39061877 7.65750852 4.36328125 13.1796875 C3.53628649 19.60001243 0.88451845 26.2309631 -2 32 C-2.66 32 -3.32 32 -4 32 C-4.2784375 33.2375 -4.2784375 33.2375 -4.5625 34.5 C-6.45959353 39.11901032 -9.25617639 42.6905863 -13 46 C-18.38606315 48.01430004 -24.7109536 47.25913733 -30.3125 46.625 C-34.66804259 43.99141611 -36.08986281 39.58094847 -38 35 C-38.66 35.99 -39.32 36.98 -40 38 C-40.66 37.67 -41.32 37.34 -42 37 C-41.34 35.35 -40.68 33.7 -40 32 C-37.625 32.1875 -37.625 32.1875 -35 33 C-34.690625 33.804375 -34.38125 34.60875 -34.0625 35.4375 C-33.21930932 38.32253707 -33.21930932 38.32253707 -30 39.25 C-29.01 39.4975 -28.02 39.745 -27 40 C-26.34 40.33 -25.68 40.66 -25 41 C-19.95624681 41.30351789 -14.90739626 41.308639 -10 40 C-10 39.01 -10 38.02 -10 37 C-9.01 37 -8.02 37 -7 37 C-6.67 35.68 -6.34 34.36 -6 33 C-7.64671412 33.30782496 -9.29235576 33.62139234 -10.9375 33.9375 C-11.85402344 34.11152344 -12.77054688 34.28554688 -13.71484375 34.46484375 C-15.95289844 34.77714988 -15.95289844 34.77714988 -17 36 C-19.75 36.375 -19.75 36.375 -23 36 C-25.875 33.5 -25.875 33.5 -28 31 C-25.69 31 -23.38 31 -21 31 C-21.99 29.35 -22.98 27.7 -24 26 C-21.36 26.33 -18.72 26.66 -16 27 C-15.67 25.68 -15.34 24.36 -15 23 C-14.4225 23.66 -13.845 24.32 -13.25 25 C-11.00346023 27.44290923 -11.00346023 27.44290923 -7 27 C-6.95758277 24.66705225 -6.95907063 22.33297433 -7 20 C-9.00654512 17.99345488 -12.31355369 18.28278382 -15 18 C-15.66 18.33 -16.32 18.66 -17 19 C-17 17.35 -17 15.7 -17 14 C-14.23798732 12.61899366 -11.91003504 13.06812281 -8.875 13.2578125 C-8.25625 13.17273437 -7.6375 13.08765625 -7 13 C-6.34 12.01 -5.68 11.02 -5 10 C-4.34 10 -3.68 10 -3 10 C-2.855625 9.401875 -2.71125 8.80375 -2.5625 8.1875 C-1.84801717 5.40895565 -0.9070752 2.7212256 0 0 Z " fill="#9C7162" transform="translate(118,14)"/>
<path d="M0 0 C2.5703291 2.5703291 2.47528474 4.47691184 3 8 C3.33 8.33 3.66 8.66 4 9 C4.33 8.34 4.66 7.68 5 7 C6.99954746 6.95745644 9.00041636 6.95919217 11 7 C12 8 12 8 12.0625 10.5625 C12.041875 11.366875 12.02125 12.17125 12 13 C13.216875 13.144375 14.43375 13.28875 15.6875 13.4375 C16.77998047 13.58058594 16.77998047 13.58058594 17.89453125 13.7265625 C19.55221598 13.94184623 21.21318241 14.13186765 22.875 14.3125 C23.57625 14.539375 24.2775 14.76625 25 15 C25.66 16.32 26.32 17.64 27 19 C24.03 19.66 21.06 20.32 18 21 C18.33 24.96 18.66 28.92 19 33 C16.03 33.495 16.03 33.495 13 34 C13.66 35.32 14.32 36.64 15 38 C13.35 37.67 11.7 37.34 10 37 C10.33 35.35 10.66 33.7 11 32 C8.36 32.33 5.72 32.66 3 33 C3.33 31.02 3.66 29.04 4 27 C4.66 27 5.32 27 6 27 C6 26.34 6 25.68 6 25 C9.96 24.505 9.96 24.505 14 24 C14.66 22.35 15.32 20.7 16 19 C11.71 19 7.42 19 3 19 C3 18.34 3 17.68 3 17 C3.99 16.34 4.98 15.68 6 15 C5.34 14.34 4.68 13.68 4 13 C3.54625 13.495 3.0925 13.99 2.625 14.5 C1 16 1 16 -1 16 C-1 15.34 -1 14.68 -1 14 C-0.34 14 0.32 14 1 14 C0.67 13.34 0.34 12.68 0 12 C-0.66 13.32 -1.32 14.64 -2 16 C-2.99 16 -3.98 16 -5 16 C-5.6875 14.3125 -5.6875 14.3125 -6 12 C-5.01810813 10.32260138 -4.01866229 8.65532623 -3 7 C-3.33 6.01 -3.66 5.02 -4 4 C-2.68 2.68 -1.36 1.36 0 0 Z " fill="#FCD8C9" transform="translate(18,7)"/>
<path d="M0 0 C0.99 0 1.98 0 3 0 C3.33 1.98 3.66 3.96 4 6 C4.66 6 5.32 6 6 6 C6.66 7.32 7.32 8.64 8 10 C8.66 9.01 9.32 8.02 10 7 C10.3403125 8.2065625 10.3403125 8.2065625 10.6875 9.4375 C11.74490009 12.18987498 11.74490009 12.18987498 14.3125 12.9375 C17.36725537 13.00854082 19.27151747 12.32526294 22 11 C22 12.98 22 14.96 22 17 C21.34 17.33 20.68 17.66 20 18 C22.40311781 20.21826259 23.69925146 20.96867203 27 21.3125 C29.91472092 21.19291274 29.91472092 21.19291274 31.9375 20 C34.94797252 18.54037696 37.70850734 18.87340413 41 19 C40.67 20.32 40.34 21.64 40 23 C39.01 23 38.02 23 37 23 C37 23.99 37 24.98 37 26 C32.18872314 28.56601432 27.30924143 28.65356923 22 28 C16.45974632 26.27450012 13.76947119 24.1235217 11 19 C8.91466367 18.12177688 8.91466367 18.12177688 7 18 C6.67 19.65 6.34 21.3 6 23 C5.34 22.67 4.68 22.34 4 22 C3.19018109 19.24543349 2.49907121 16.54676355 1.875 13.75 C1.69324219 12.98558594 1.51148437 12.22117187 1.32421875 11.43359375 C0.43363316 7.55653316 -0.24037185 4.00619746 0 0 Z " fill="#A4A29D" transform="translate(71,28)"/>
<path d="M0 0 C0.99 0 1.98 0 3 0 C3.33 1.98 3.66 3.96 4 6 C4.66 6 5.32 6 6 6 C6.66 7.32 7.32 8.64 8 10 C8.66 9.01 9.32 8.02 10 7 C10.3403125 8.2065625 10.3403125 8.2065625 10.6875 9.4375 C11.74490009 12.18987498 11.74490009 12.18987498 14.3125 12.9375 C17.36725537 13.00854082 19.27151747 12.32526294 22 11 C22 12.98 22 14.96 22 17 C21.34 17.33 20.68 17.66 20 18 C23.01447835 20.57075841 25.35979771 21.52207066 29.25 22.1875 C30.14203125 22.34605469 31.0340625 22.50460938 31.953125 22.66796875 C32.62859375 22.77753906 33.3040625 22.88710938 34 23 C34.33 21.68 34.66 20.36 35 19 C36.98 19 38.96 19 41 19 C40.67 20.32 40.34 21.64 40 23 C39.01 23 38.02 23 37 23 C37 23.99 37 24.98 37 26 C32.18872314 28.56601432 27.30924143 28.65356923 22 28 C16.45974632 26.27450012 13.76947119 24.1235217 11 19 C8.91466367 18.12177688 8.91466367 18.12177688 7 18 C6.67 19.65 6.34 21.3 6 23 C5.34 22.67 4.68 22.34 4 22 C3.19018109 19.24543349 2.49907121 16.54676355 1.875 13.75 C1.69324219 12.98558594 1.51148438 12.22117187 1.32421875 11.43359375 C0.43363316 7.55653316 -0.24037185 4.00619746 0 0 Z " fill="#A4A29D" transform="translate(7,28)"/>
<path d="M0 0 C2.5703291 2.5703291 2.47528474 4.47691184 3 8 C3.33 8.33 3.66 8.66 4 9 C4.33 8.34 4.66 7.68 5 7 C6.99954746 6.95745644 9.00041636 6.95919217 11 7 C12 8 12 8 12.0625 10.5625 C12.041875 11.366875 12.02125 12.17125 12 13 C13.216875 13.144375 14.43375 13.28875 15.6875 13.4375 C16.77998047 13.58058594 16.77998047 13.58058594 17.89453125 13.7265625 C19.55221598 13.94184623 21.21318241 14.13186765 22.875 14.3125 C23.57625 14.539375 24.2775 14.76625 25 15 C25.66 16.32 26.32 17.64 27 19 C24.03 19.66 21.06 20.32 18 21 C18.33 24.96 18.66 28.92 19 33 C17.68 32.67 16.36 32.34 15 32 C15.33 27.71 15.66 23.42 16 19 C11.71 19 7.42 19 3 19 C3 18.34 3 17.68 3 17 C3.99 16.34 4.98 15.68 6 15 C5.34 14.34 4.68 13.68 4 13 C3.54625 13.495 3.0925 13.99 2.625 14.5 C1 16 1 16 -1 16 C-1 15.34 -1 14.68 -1 14 C-0.34 14 0.32 14 1 14 C0.67 13.34 0.34 12.68 0 12 C-0.66 13.32 -1.32 14.64 -2 16 C-2.99 16 -3.98 16 -5 16 C-5.6875 14.3125 -5.6875 14.3125 -6 12 C-5.01810813 10.32260138 -4.01866229 8.65532623 -3 7 C-3.33 6.01 -3.66 5.02 -4 4 C-2.68 2.68 -1.36 1.36 0 0 Z " fill="#FCD8C9" transform="translate(82,7)"/>
<path d="M0 0 C4.11276254 5.18565711 4.57557426 9.55760743 4 16 C3.3056145 19.13191803 2.53450971 22.17094507 1 25 C0.01 25.33 -0.98 25.66 -2 26 C-2.66 26.66 -3.32 27.32 -4 28 C-5.98821313 28.39764263 -7.98944339 28.73775349 -10 29 C-9.01 28.34 -8.02 27.68 -7 27 C-6.66661404 23.45812169 -6.66661404 23.45812169 -7 20 C-9.00654512 17.99345488 -12.31355369 18.28278382 -15 18 C-15.66 18.33 -16.32 18.66 -17 19 C-17 17.35 -17 15.7 -17 14 C-14.23798732 12.61899366 -11.91003504 13.06812281 -8.875 13.2578125 C-8.25625 13.17273437 -7.6375 13.08765625 -7 13 C-6.34 12.01 -5.68 11.02 -5 10 C-4.34 10 -3.68 10 -3 10 C-2.7834375 9.1028125 -2.7834375 9.1028125 -2.5625 8.1875 C-1.84801717 5.40895565 -0.9070752 2.7212256 0 0 Z " fill="#B5998E" transform="translate(118,14)"/>
<path d="M0 0 C4.11276254 5.18565711 4.57557426 9.55760743 4 16 C3.3056145 19.13191803 2.53450971 22.17094507 1 25 C0.01 25.33 -0.98 25.66 -2 26 C-2.66 26.66 -3.32 27.32 -4 28 C-5.98821313 28.39764263 -7.98944339 28.73775349 -10 29 C-9.01 28.34 -8.02 27.68 -7 27 C-6.66661404 23.45812169 -6.66661404 23.45812169 -7 20 C-9.00654512 17.99345488 -12.31355369 18.28278382 -15 18 C-15.66 18.33 -16.32 18.66 -17 19 C-17 17.35 -17 15.7 -17 14 C-14.23798732 12.61899366 -11.91003504 13.06812281 -8.875 13.2578125 C-8.25625 13.17273437 -7.6375 13.08765625 -7 13 C-6.34 12.01 -5.68 11.02 -5 10 C-4.34 10 -3.68 10 -3 10 C-2.7834375 9.1028125 -2.7834375 9.1028125 -2.5625 8.1875 C-1.84801717 5.40895565 -0.9070752 2.7212256 0 0 Z " fill="#B5998E" transform="translate(54,14)"/>
<path d="M0 0 C1.62490954 -0.02698189 3.24994633 -0.04638757 4.875 -0.0625 C5.77992187 -0.07410156 6.68484375 -0.08570313 7.6171875 -0.09765625 C10 0 10 0 12 1 C12 2.32 12 3.64 12 5 C12.99 5 13.98 5 15 5 C14.95875 6.11375 14.9175 7.2275 14.875 8.375 C14.58878141 12.04366025 14.58878141 12.04366025 17 14 C17 14.66 17 15.32 17 16 C14 17 14 17 11.7734375 16.14453125 C10.98195313 15.70496094 10.19046875 15.26539063 9.375 14.8125 C8.57835938 14.38582031 7.78171875 13.95914062 6.9609375 13.51953125 C5 12 5 12 4.2265625 9.82421875 C4.15179688 9.22222656 4.07703125 8.62023437 4 8 C3.34 8 2.68 8 2 8 C2 7.34 2 6.68 2 6 C-0.31 5.34 -2.62 4.68 -5 4 C-4.67 3.34 -4.34 2.68 -4 2 C-3.01 2.33 -2.02 2.66 -1 3 C-0.67 2.01 -0.34 1.02 0 0 Z " fill="#CDCCCA" transform="translate(96,3)"/>
<path d="M0 0 C1.62490954 -0.02698189 3.24994633 -0.04638757 4.875 -0.0625 C5.77992187 -0.07410156 6.68484375 -0.08570313 7.6171875 -0.09765625 C10 0 10 0 12 1 C12 2.32 12 3.64 12 5 C12.99 5 13.98 5 15 5 C14.95875 6.11375 14.9175 7.2275 14.875 8.375 C14.58878141 12.04366025 14.58878141 12.04366025 17 14 C17 14.66 17 15.32 17 16 C14 17 14 17 11.7734375 16.14453125 C10.98195313 15.70496094 10.19046875 15.26539063 9.375 14.8125 C8.57835937 14.38582031 7.78171875 13.95914062 6.9609375 13.51953125 C5 12 5 12 4.2265625 9.82421875 C4.15179688 9.22222656 4.07703125 8.62023437 4 8 C3.34 8 2.68 8 2 8 C2 7.34 2 6.68 2 6 C-0.31 5.34 -2.62 4.68 -5 4 C-4.67 3.34 -4.34 2.68 -4 2 C-3.01 2.33 -2.02 2.66 -1 3 C-0.67 2.01 -0.34 1.02 0 0 Z " fill="#CDCCCA" transform="translate(32,3)"/>
<path d="M0 0 C2.87791422 0.39971031 4.64720862 0.71549082 6.9375 2.5625 C9.76596702 4.5338558 11.61823596 4.35226709 15 4 C15.639375 3.67 16.27875 3.34 16.9375 3 C19.94797252 1.54037696 22.70850734 1.87340413 26 2 C25.67 3.32 25.34 4.64 25 6 C24.01 6 23.02 6 22 6 C22 6.99 22 7.98 22 9 C17.18552951 11.5677176 12.31303896 11.54405519 7 11 C3.05922942 9.66295284 1.52543771 9.0269919 -0.375 5.3125 C-0.58125 4.549375 -0.7875 3.78625 -1 3 C-0.34 2.67 0.32 2.34 1 2 C0.67 1.34 0.34 0.68 0 0 Z " fill="#B98C7B" transform="translate(86,45)"/>
<path d="M0 0 C0.33 0 0.66 0 1 0 C1 3.3 1 6.6 1 10 C0.01 10.33 -0.98 10.66 -2 11 C-1.34 12.32 -0.68 13.64 0 15 C-1.65 14.67 -3.3 14.34 -5 14 C-4.67 12.35 -4.34 10.7 -4 9 C-4.70125 9.53625 -5.4025 10.0725 -6.125 10.625 C-9 12 -9 12 -12.25 11.3125 C-15 10 -15 10 -16 8 C-16.039992 6.00039988 -16.04346799 3.99952758 -16 2 C-14.68 2 -13.36 2 -12 2 C-10.10275363 1.87387471 -8.2068142 1.72689309 -6.3125 1.5625 C-5.33925781 1.48128906 -4.36601563 1.40007813 -3.36328125 1.31640625 C-1.04738271 1.24972272 -1.04738271 1.24972272 0 0 Z " fill="#E2B5A1" transform="translate(97,30)"/>
<path d="M0 0 C1.35432675 1.31200404 2.68733482 2.64631404 4 4 C4 4.33 4 4.66 4 5 C1.03 5.66 -1.94 6.32 -5 7 C-4.67 10.96 -4.34 14.92 -4 19 C-5.98 19.33 -7.96 19.66 -10 20 C-9.34 21.32 -8.68 22.64 -8 24 C-9.65 23.67 -11.3 23.34 -13 23 C-12.67 21.35 -12.34 19.7 -12 18 C-15.96 18.495 -15.96 18.495 -20 19 C-19.67 17.02 -19.34 15.04 -19 13 C-18.34 13 -17.68 13 -17 13 C-17 12.34 -17 11.68 -17 11 C-14.36 10.67 -11.72 10.34 -9 10 C-8.814375 9.05125 -8.62875 8.1025 -8.4375 7.125 C-7 4 -7 4 -3.375 2.625 C-2.26125 2.41875 -1.1475 2.2125 0 2 C0 1.34 0 0.68 0 0 Z " fill="#DBAEA0" transform="translate(41,21)"/>
<path d="M0 0 C2.375 0.1875 2.375 0.1875 5 1 C5.309375 1.804375 5.61875 2.60875 5.9375 3.4375 C6.78069068 6.32253707 6.78069068 6.32253707 10 7.25 C10.99 7.4975 11.98 7.745 13 8 C13.66 8.33 14.32 8.66 15 9 C20.74637225 9.35717853 26.33884488 8.98454872 32 8 C27.11122853 14.38256275 27.11122853 14.38256275 23 15 C11.64072707 15.80602102 11.64072707 15.80602102 7 13 C5.00174214 9.7985471 3.45086528 6.47950876 2 3 C1.01 4.485 1.01 4.485 0 6 C-0.66 5.67 -1.32 5.34 -2 5 C-1.34 3.35 -0.68 1.7 0 0 Z " fill="#6B4743" transform="translate(78,46)"/>
<path d="M0 0 C2.375 0.1875 2.375 0.1875 5 1 C5.309375 1.804375 5.61875 2.60875 5.9375 3.4375 C6.78069068 6.32253707 6.78069068 6.32253707 10 7.25 C10.99 7.4975 11.98 7.745 13 8 C13.66 8.33 14.32 8.66 15 9 C20.74637225 9.35717853 26.33884488 8.98454872 32 8 C27.11122853 14.38256275 27.11122853 14.38256275 23 15 C11.64072707 15.80602102 11.64072707 15.80602102 7 13 C5.00174214 9.7985471 3.45086528 6.47950876 2 3 C1.01 4.485 1.01 4.485 0 6 C-0.66 5.67 -1.32 5.34 -2 5 C-1.34 3.35 -0.68 1.7 0 0 Z " fill="#6B4743" transform="translate(14,46)"/>
<path d="M0 0 C2.79424436 0.3880895 4.61019496 0.68947734 6.84375 2.46875 C9.34549185 4.24534929 11.24256218 4.67306985 14.25 5.1875 C15.14203125 5.34605469 16.0340625 5.50460938 16.953125 5.66796875 C17.62859375 5.77753906 18.3040625 5.88710938 19 6 C19.33 4.68 19.66 3.36 20 2 C21.98 2 23.96 2 26 2 C25.67 3.32 25.34 4.64 25 6 C24.01 6 23.02 6 22 6 C22 6.99 22 7.98 22 9 C17.18552951 11.5677176 12.31303896 11.54405519 7 11 C3.05922942 9.66295284 1.52543771 9.0269919 -0.375 5.3125 C-0.58125 4.549375 -0.7875 3.78625 -1 3 C-0.34 2.67 0.32 2.34 1 2 C0.67 1.34 0.34 0.68 0 0 Z " fill="#DAAA97" transform="translate(22,45)"/>
<path d="M0 0 C0 0.33 0 0.66 0 1 C-0.969375 1.12375 -1.93875 1.2475 -2.9375 1.375 C-4.4534375 1.684375 -4.4534375 1.684375 -6 2 C-6.33 2.66 -6.66 3.32 -7 4 C-9.0625 4.625 -9.0625 4.625 -11 5 C-8.69 5.66 -6.38 6.32 -4 7 C-4 7.66 -4 8.32 -4 9 C-3.34 9 -2.68 9 -2 9 C-2.33 9.66 -2.66 10.32 -3 11 C-4.65 10.34 -6.3 9.68 -8 9 C-8.66 9.66 -9.32 10.32 -10 11 C-12.625 11.125 -12.625 11.125 -15 11 C-15.33 12.32 -15.66 13.64 -16 15 C-18.76223278 12.23776722 -18.57856291 9.79293383 -19 6 C-20.32 6.33 -21.64 6.66 -23 7 C-17.12071549 0.35146331 -8.48995004 -0.48056321 0 0 Z " fill="#C6C7C4" transform="translate(102,2)"/>
<path d="M0 0 C0 0.33 0 0.66 0 1 C-0.969375 1.12375 -1.93875 1.2475 -2.9375 1.375 C-4.4534375 1.684375 -4.4534375 1.684375 -6 2 C-6.33 2.66 -6.66 3.32 -7 4 C-9.0625 4.625 -9.0625 4.625 -11 5 C-8.69 5.66 -6.38 6.32 -4 7 C-4 7.66 -4 8.32 -4 9 C-3.34 9 -2.68 9 -2 9 C-2.33 9.66 -2.66 10.32 -3 11 C-4.65 10.34 -6.3 9.68 -8 9 C-8.66 9.66 -9.32 10.32 -10 11 C-12.625 11.125 -12.625 11.125 -15 11 C-15.33 12.32 -15.66 13.64 -16 15 C-18.76223278 12.23776722 -18.57856291 9.79293383 -19 6 C-20.32 6.33 -21.64 6.66 -23 7 C-17.12071549 0.35146331 -8.48995004 -0.48056321 0 0 Z " fill="#C6C6C4" transform="translate(38,2)"/>
<path d="M0 0 C0.33 0.66 0.66 1.32 1 2 C0.0625 4.625 0.0625 4.625 -1 7 C-2.89409978 7.22354607 -4.7904348 7.42819951 -6.6875 7.625 C-8.27111328 7.79902344 -8.27111328 7.79902344 -9.88671875 7.9765625 C-13.13716346 8.0010326 -15.10230796 7.40852563 -18 6 C-17.34 4.35 -16.68 2.7 -16 1 C-10.61509359 0.08342019 -5.45769811 -0.11138159 0 0 Z " fill="#C9A797" transform="translate(98,25)"/>
<path d="M0 0 C0.33 0.66 0.66 1.32 1 2 C0.0625 4.625 0.0625 4.625 -1 7 C-2.89409978 7.22354607 -4.7904348 7.42819951 -6.6875 7.625 C-8.27111328 7.79902344 -8.27111328 7.79902344 -9.88671875 7.9765625 C-13.13716346 8.0010326 -15.10230796 7.40852563 -18 6 C-17.34 4.35 -16.68 2.7 -16 1 C-10.61509359 0.08342019 -5.45769811 -0.11138159 0 0 Z " fill="#C9A797" transform="translate(34,25)"/>
<path d="M0 0 C3.99782522 2.17024798 7.15431649 4.4225693 10 8 C10.625 11.625 10.625 11.625 10 15 C7.15739513 17.38164192 5.71594733 18 2 18 C1.67 16.68 1.34 15.36 1 14 C1.99 13.67 2.98 13.34 4 13 C3.34 12.01 2.68 11.02 2 10 C1.92094936 7.66800612 1.91201231 5.33167378 2 3 C1.01 3 0.02 3 -1 3 C-0.67 2.01 -0.34 1.02 0 0 Z " fill="#C5C4C4" transform="translate(108,5)"/>
<path d="M0 0 C3.99782522 2.17024798 7.15431649 4.4225693 10 8 C10.625 11.625 10.625 11.625 10 15 C7.15739513 17.38164192 5.71594733 18 2 18 C1.67 16.68 1.34 15.36 1 14 C1.99 13.67 2.98 13.34 4 13 C3.34 12.01 2.68 11.02 2 10 C1.92094936 7.66800612 1.91201231 5.33167378 2 3 C1.01 3 0.02 3 -1 3 C-0.67 2.01 -0.34 1.02 0 0 Z " fill="#C5C4C4" transform="translate(44,5)"/>
<path d="M0 0 C6.6741573 2.34831461 6.6741573 2.34831461 8.3125 5.625 C8.6528125 6.800625 8.6528125 6.800625 9 8 C9.66 8.33 10.32 8.66 11 9 C11 9.66 11 10.32 11 11 C7.77075002 11.75098837 5.44615296 12.0991451 2.1875 11.375 C0 10 0 10 -0.8125 7.375 C-0.9053125 6.199375 -0.9053125 6.199375 -1 5 C-3.97 4.505 -3.97 4.505 -7 4 C-7 3.67 -7 3.34 -7 3 C-5.5459375 2.5359375 -5.5459375 2.5359375 -4.0625 2.0625 C-1.15934208 1.30476658 -1.15934208 1.30476658 0 0 Z " fill="#DCCAC1" transform="translate(94,10)"/>
<path d="M0 0 C6.6741573 2.34831461 6.6741573 2.34831461 8.3125 5.625 C8.6528125 6.800625 8.6528125 6.800625 9 8 C9.66 8.33 10.32 8.66 11 9 C11 9.66 11 10.32 11 11 C7.77075002 11.75098837 5.44615296 12.0991451 2.1875 11.375 C0 10 0 10 -0.8125 7.375 C-0.9053125 6.199375 -0.9053125 6.199375 -1 5 C-3.97 4.505 -3.97 4.505 -7 4 C-7 3.67 -7 3.34 -7 3 C-5.5459375 2.5359375 -5.5459375 2.5359375 -4.0625 2.0625 C-1.15934208 1.30476658 -1.15934208 1.30476658 0 0 Z " fill="#DCCAC1" transform="translate(30,10)"/>
<path d="M0 0 C1.125 1.75 1.125 1.75 2 4 C1.1875 5.875 1.1875 5.875 0 8 C-0.38290462 9.99110401 -0.72604615 11.99100513 -1 14 C-0.01 14 0.98 14 2 14 C2.33 12.35 2.66 10.7 3 9 C3.66 9.33 4.32 9.66 5 10 C5 10.66 5 11.32 5 12 C4.34 12 3.68 12 3 12 C3 12.66 3 13.32 3 14 C3.99 13.67 4.98 13.34 6 13 C5.67 13.99 5.34 14.98 5 16 C2.93359375 16.73046875 2.93359375 16.73046875 0.4375 17.1875 C-0.38878906 17.34605469 -1.21507813 17.50460938 -2.06640625 17.66796875 C-2.70449219 17.77753906 -3.34257813 17.88710938 -4 18 C-5.01448341 11.81531803 -5.67960247 7.45126291 -2 2 C-1.34 1.34 -0.68 0.68 0 0 Z " fill="#DBDBD8" transform="translate(78,9)"/>
<path d="M0 0 C1.125 1.75 1.125 1.75 2 4 C1.1875 5.875 1.1875 5.875 0 8 C-0.38290462 9.99110401 -0.72604615 11.99100513 -1 14 C-0.01 14 0.98 14 2 14 C2.33 12.35 2.66 10.7 3 9 C3.66 9.33 4.32 9.66 5 10 C5 10.66 5 11.32 5 12 C4.34 12 3.68 12 3 12 C3 12.66 3 13.32 3 14 C3.99 13.67 4.98 13.34 6 13 C5.67 13.99 5.34 14.98 5 16 C2.93359375 16.73046875 2.93359375 16.73046875 0.4375 17.1875 C-0.38878906 17.34605469 -1.21507812 17.50460938 -2.06640625 17.66796875 C-2.70449219 17.77753906 -3.34257812 17.88710938 -4 18 C-5.01448341 11.81531803 -5.67960247 7.45126291 -2 2 C-1.34 1.34 -0.68 0.68 0 0 Z " fill="#DBDBD8" transform="translate(14,9)"/>
<path d="M0 0 C2.77042109 2.77042109 2.39796106 4.76533805 2.625 8.625 C2.69976562 9.81351563 2.77453125 11.00203125 2.8515625 12.2265625 C2.92503906 13.59941406 2.92503906 13.59941406 3 15 C1.68 15.33 0.36 15.66 -1 16 C-1 15.34 -1 14.68 -1 14 C-0.34 14 0.32 14 1 14 C0.67 13.34 0.34 12.68 0 12 C-0.66 13.32 -1.32 14.64 -2 16 C-2.99 16 -3.98 16 -5 16 C-5.6875 14.3125 -5.6875 14.3125 -6 12 C-5.01810813 10.32260138 -4.01866229 8.65532623 -3 7 C-3.33 6.01 -3.66 5.02 -4 4 C-2.68 2.68 -1.36 1.36 0 0 Z " fill="#E5E3E0" transform="translate(82,7)"/>
<path d="M0 0 C2.77042109 2.77042109 2.39796106 4.76533805 2.625 8.625 C2.69976562 9.81351563 2.77453125 11.00203125 2.8515625 12.2265625 C2.92503906 13.59941406 2.92503906 13.59941406 3 15 C1.68 15.33 0.36 15.66 -1 16 C-1 15.34 -1 14.68 -1 14 C-0.34 14 0.32 14 1 14 C0.67 13.34 0.34 12.68 0 12 C-0.66 13.32 -1.32 14.64 -2 16 C-2.99 16 -3.98 16 -5 16 C-5.6875 14.3125 -5.6875 14.3125 -6 12 C-5.01810813 10.32260138 -4.01866229 8.65532623 -3 7 C-3.33 6.01 -3.66 5.02 -4 4 C-2.68 2.68 -1.36 1.36 0 0 Z " fill="#E5E3E0" transform="translate(18,7)"/>
<path d="M0 0 C4.54394294 0.53458152 7.29512312 2.39870347 11 5 C12.3191582 5.69429379 13.64649406 6.37530495 15 7 C14.67 7.99 14.34 8.98 14 10 C12.06177404 9.96694498 10.12414332 9.89750095 8.1875 9.8125 C7.10855469 9.77769531 6.02960938 9.74289063 4.91796875 9.70703125 C2 9 2 9 0.11328125 6.44921875 C-0.25410156 5.64097656 -0.62148437 4.83273438 -1 4 C-0.34 3.34 0.32 2.68 1 2 C0.67 1.34 0.34 0.68 0 0 Z " fill="#DCAC98" transform="translate(86,45)"/>
<path d="M0 0 C0.33 0 0.66 0 1 0 C1.31985731 6.71700347 0.4793824 11.75726932 -2 18 C-2.33 18 -2.66 18 -3 18 C-3 16.35 -3 14.7 -3 13 C-3.66 13 -4.32 13 -5 13 C-5.76173392 8.6835078 -6.16063604 5.25566547 -5 1 C-3.35 1.33 -1.7 1.66 0 2 C0 1.34 0 0.68 0 0 Z " fill="#7F7A79" transform="translate(121,21)"/>
<path d="M0 0 C0.33 0 0.66 0 1 0 C1.31985731 6.71700347 0.4793824 11.75726932 -2 18 C-2.33 18 -2.66 18 -3 18 C-3 16.35 -3 14.7 -3 13 C-3.66 13 -4.32 13 -5 13 C-5.76173392 8.6835078 -6.16063604 5.25566547 -5 1 C-3.35 1.33 -1.7 1.66 0 2 C0 1.34 0 0.68 0 0 Z " fill="#7F7A79" transform="translate(57,21)"/>
<path d="M0 0 C3.375 -0.125 3.375 -0.125 7 0 C9 2 9 2 9.125 5.625 C9.08375 6.73875 9.0425 7.8525 9 9 C7.35 9.33 5.7 9.66 4 10 C3.67 9.01 3.34 8.02 3 7 C2.01 6.67 1.02 6.34 0 6 C0 4.02 0 2.04 0 0 Z " fill="#E1B5A8" transform="translate(103,32)"/>
<path d="M0 0 C3.375 -0.125 3.375 -0.125 7 0 C9 2 9 2 9.125 5.625 C9.08375 6.73875 9.0425 7.8525 9 9 C7.35 9.33 5.7 9.66 4 10 C3.67 9.01 3.34 8.02 3 7 C2.01 6.67 1.02 6.34 0 6 C0 4.02 0 2.04 0 0 Z " fill="#E1B5A8" transform="translate(39,32)"/>
<path d="M0 0 C1.98 0 3.96 0 6 0 C5.67 1.32 5.34 2.64 5 4 C4.01 4 3.02 4 2 4 C2 4.99 2 5.98 2 7 C-2.64564624 9.47767799 -7.85048438 9.81170331 -13 9 C-13.99 8.01 -14.98 7.02 -16 6 C-11.05 6.99 -11.05 6.99 -6 8 C-6 6.68 -6 5.36 -6 4 C-4.35 4 -2.7 4 -1 4 C-0.67 2.68 -0.34 1.36 0 0 Z " fill="#BC907D" transform="translate(42,47)"/>
<path d="M0 0 C2.25 0.0625 2.25 0.0625 5 1 C6.64267478 3.21621885 7.74073115 5.52488535 9 8 C9.66 8.66 10.32 9.32 11 10 C11.33 10.66 11.66 11.32 12 12 C14.57951874 12.69093896 14.57951874 12.69093896 17.5625 13.125 C18.57441406 13.29257812 19.58632812 13.46015625 20.62890625 13.6328125 C21.80259766 13.81457031 21.80259766 13.81457031 23 14 C23 14.33 23 14.66 23 15 C11.01292175 15.4264178 11.01292175 15.4264178 7 13 C5.00174214 9.7985471 3.45086528 6.47950876 2 3 C1.01 4.485 1.01 4.485 0 6 C-0.66 5.67 -1.32 5.34 -2 5 C-1.34 3.35 -0.68 1.7 0 0 Z " fill="#3B2B2C" transform="translate(78,46)"/>
<path d="M0 0 C2.25 0.0625 2.25 0.0625 5 1 C6.64267478 3.21621885 7.74073115 5.52488535 9 8 C9.66 8.66 10.32 9.32 11 10 C11.33 10.66 11.66 11.32 12 12 C14.57951874 12.69093896 14.57951874 12.69093896 17.5625 13.125 C18.57441406 13.29257812 19.58632813 13.46015625 20.62890625 13.6328125 C21.80259766 13.81457031 21.80259766 13.81457031 23 14 C23 14.33 23 14.66 23 15 C11.01292175 15.4264178 11.01292175 15.4264178 7 13 C5.00174214 9.7985471 3.45086528 6.47950876 2 3 C1.01 4.485 1.01 4.485 0 6 C-0.66 5.67 -1.32 5.34 -2 5 C-1.34 3.35 -0.68 1.7 0 0 Z " fill="#3B2B2C" transform="translate(14,46)"/>
<path d="M0 0 C0.99 0 1.98 0 3 0 C2.67 2.31 2.34 4.62 2 7 C-1 7 -1 7 -4.5625 6.4375 C-7.85312994 5.69466488 -7.85312994 5.69466488 -10 7 C-10 5.35 -10 3.7 -10 2 C-6.78548731 0.39274365 -3.56387464 0.94251815 0 1 C0 0.67 0 0.34 0 0 Z " fill="#B39386" transform="translate(111,26)"/>
<path d="M0 0 C0.99 0 1.98 0 3 0 C2.67 2.31 2.34 4.62 2 7 C-1 7 -1 7 -4.5625 6.4375 C-7.85312994 5.69466488 -7.85312994 5.69466488 -10 7 C-10 5.35 -10 3.7 -10 2 C-6.78548731 0.39274365 -3.56387464 0.94251815 0 1 C0 0.67 0 0.34 0 0 Z " fill="#B39386" transform="translate(47,26)"/>
<path d="M0 0 C0 0.66 0 1.32 0 2 C0.66 2 1.32 2 2 2 C1.67 2.66 1.34 3.32 1 4 C-1.475 3.01 -1.475 3.01 -4 2 C-4.66 2.66 -5.32 3.32 -6 4 C-8.625 4.125 -8.625 4.125 -11 4 C-11.33 5.32 -11.66 6.64 -12 8 C-14 6 -14 6 -14.125 3.375 C-14.08375 2.59125 -14.0425 1.8075 -14 1 C-8.83430559 -0.79217969 -5.48946087 -1.12029814 0 0 Z " fill="#B6AEA7" transform="translate(98,9)"/>
<path d="M0 0 C0 0.66 0 1.32 0 2 C0.66 2 1.32 2 2 2 C1.67 2.66 1.34 3.32 1 4 C-1.475 3.01 -1.475 3.01 -4 2 C-4.66 2.66 -5.32 3.32 -6 4 C-8.625 4.125 -8.625 4.125 -11 4 C-11.33 5.32 -11.66 6.64 -12 8 C-14 6 -14 6 -14.125 3.375 C-14.08375 2.59125 -14.0425 1.8075 -14 1 C-8.83430559 -0.79217969 -5.48946087 -1.12029814 0 0 Z " fill="#B6AFA7" transform="translate(34,9)"/>
<path d="M0 0 C4.95 0 9.9 0 15 0 C15 0.99 15 1.98 15 3 C11.58459721 5.10178633 8.97748585 5.56821226 5 5 C3.35 3.35 1.7 1.7 0 0 Z " fill="#7B3935" transform="translate(90,45)"/>
<path d="M0 0 C4.95 0 9.9 0 15 0 C15 0.99 15 1.98 15 3 C11.58459721 5.10178633 8.97748585 5.56821226 5 5 C3.35 3.35 1.7 1.7 0 0 Z " fill="#7B3935" transform="translate(26,45)"/>
<path d="M0 0 C2.00720923 0.28674418 4.0085944 0.61866701 6 1 C5.34 3.31 4.68 5.62 4 8 C5.65 8 7.3 8 9 8 C8.01 8.99 7.02 9.98 6 11 C3.97954558 10.39816251 1.97888961 9.72693904 0 9 C-1.36623674 6.26752652 -1.128426 4.01801098 -1 1 C-0.67 0.67 -0.34 0.34 0 0 Z " fill="#E1B5A1" transform="translate(18,31)"/>
<path d="M0 0 C2.78388975 1.70625501 3.85384206 2.47626739 4.75 5.6875 C4.87375 6.8321875 4.87375 6.8321875 5 8 C1.62114388 8.28526928 -1.63291991 8.46087248 -5 8 C-7.125 5.5 -7.125 5.5 -8 3 C-5.36 3.33 -2.72 3.66 0 4 C0 2.68 0 1.36 0 0 Z " fill="#C69A8F" transform="translate(102,37)"/>
<path d="M0 0 C2.78388975 1.70625501 3.85384206 2.47626739 4.75 5.6875 C4.87375 6.8321875 4.87375 6.8321875 5 8 C1.62114388 8.28526928 -1.63291991 8.46087248 -5 8 C-7.125 5.5 -7.125 5.5 -8 3 C-5.36 3.33 -2.72 3.66 0 4 C0 2.68 0 1.36 0 0 Z " fill="#C69A8F" transform="translate(38,37)"/>
<path d="M0 0 C1.35432675 1.31200404 2.68733482 2.64631404 4 4 C4 4.33 4 4.66 4 5 C1.03 5.66 -1.94 6.32 -5 7 C-4.67 10.96 -4.34 14.92 -4 19 C-5.32 18.67 -6.64 18.34 -8 18 C-7.67 13.38 -7.34 8.76 -7 4 C-4.69 3.34 -2.38 2.68 0 2 C0 1.34 0 0.68 0 0 Z " fill="#EEBFB0" transform="translate(105,21)"/>
<path d="M0 0 C1.35432675 1.31200404 2.68733482 2.64631404 4 4 C4 4.33 4 4.66 4 5 C1.03 5.66 -1.94 6.32 -5 7 C-4.67 10.96 -4.34 14.92 -4 19 C-5.32 18.67 -6.64 18.34 -8 18 C-7.67 13.38 -7.34 8.76 -7 4 C-4.69 3.34 -2.38 2.68 0 2 C0 1.34 0 0.68 0 0 Z " fill="#EEBFB0" transform="translate(41,21)"/>
<path d="M0 0 C0 3.3 0 6.6 0 10 C-0.99 10.33 -1.98 10.66 -3 11 C-2.34 12.32 -1.68 13.64 -1 15 C-2.65 14.67 -4.3 14.34 -6 14 C-5.67 12.02 -5.34 10.04 -5 8 C-4.01 7.67 -3.02 7.34 -2 7 C-2 6.01 -2 5.02 -2 4 C-3.98 4.33 -5.96 4.66 -8 5 C-8 4.34 -8 3.68 -8 3 C-1.125 0 -1.125 0 0 0 Z " fill="#DBAEA0" transform="translate(98,30)"/>
<path d="M0 0 C1.65 0 3.3 0 5 0 C4.01 0.33 3.02 0.66 2 1 C2 1.66 2 2.32 2 3 C3.98 2.67 5.96 2.34 8 2 C8 2.99 8 3.98 8 5 C5.09907498 6.93395001 4.10325263 7.30131941 0.8125 7.625 C-0.445625 7.74875 -1.70375 7.8725 -3 8 C-2.67 6.02 -2.34 4.04 -2 2 C-1.34 2 -0.68 2 0 2 C0 1.34 0 0.68 0 0 Z " fill="#FACFBF" transform="translate(88,32)"/>
<path d="M0 0 C1.65 0 3.3 0 5 0 C4.01 0.33 3.02 0.66 2 1 C2 1.66 2 2.32 2 3 C3.98 2.67 5.96 2.34 8 2 C8 2.99 8 3.98 8 5 C5.09907498 6.93395001 4.10325263 7.30131941 0.8125 7.625 C-0.445625 7.74875 -1.70375 7.8725 -3 8 C-2.67 6.02 -2.34 4.04 -2 2 C-1.34 2 -0.68 2 0 2 C0 1.34 0 0.68 0 0 Z " fill="#FACFBF" transform="translate(24,32)"/>
<path d="M0 0 C2.64 0 5.28 0 8 0 C7.67 1.32 7.34 2.64 7 4 C6.01 4 5.02 4 4 4 C4 4.99 4 5.98 4 7 C3.01 8.485 3.01 8.485 2 10 C1.5875 9.195625 1.175 8.39125 0.75 7.5625 C-0.73452331 4.85890282 -0.73452331 4.85890282 -3.1875 4.1875 C-3.785625 4.125625 -4.38375 4.06375 -5 4 C-4.67 3.01 -4.34 2.02 -4 1 C-4 1.66 -4 2.32 -4 3 C-3.01 2.67 -2.02 2.34 -1 2 C-0.67 1.34 -0.34 0.68 0 0 Z " fill="#AC8675" transform="translate(83,42)"/>
<path d="M0 0 C2.64 0 5.28 0 8 0 C7.67 1.32 7.34 2.64 7 4 C6.01 4 5.02 4 4 4 C4 4.99 4 5.98 4 7 C3.01 8.485 3.01 8.485 2 10 C1.5875 9.195625 1.175 8.39125 0.75 7.5625 C-0.73452331 4.85890282 -0.73452331 4.85890282 -3.1875 4.1875 C-3.785625 4.125625 -4.38375 4.06375 -5 4 C-4.67 3.01 -4.34 2.02 -4 1 C-4 1.66 -4 2.32 -4 3 C-3.01 2.67 -2.02 2.34 -1 2 C-0.67 1.34 -0.34 0.68 0 0 Z " fill="#AC8675" transform="translate(19,42)"/>
<path d="M0 0 C2.375 -0.1875 2.375 -0.1875 5 0 C5.66 0.99 6.32 1.98 7 3 C5.9375 4.5625 5.9375 4.5625 4 6 C0.69564394 5.76811536 -2.02141281 5.48929359 -5 4 C-4.67 3.34 -4.34 2.68 -4 2 C-3.01 2.33 -2.02 2.66 -1 3 C-0.67 2.01 -0.34 1.02 0 0 Z " fill="#E2E3E1" transform="translate(96,3)"/>
<path d="M0 0 C2.375 -0.1875 2.375 -0.1875 5 0 C5.66 0.99 6.32 1.98 7 3 C5.9375 4.5625 5.9375 4.5625 4 6 C0.69564394 5.76811536 -2.02141281 5.48929359 -5 4 C-4.67 3.34 -4.34 2.68 -4 2 C-3.01 2.33 -2.02 2.66 -1 3 C-0.67 2.01 -0.34 1.02 0 0 Z " fill="#E2E3E1" transform="translate(32,3)"/>
<path d="M0 0 C5.75 -0.125 5.75 -0.125 8 1 C8.625 3.0625 8.625 3.0625 9 5 C6.09458095 5.96847302 4.03362546 6.19582812 1 6.25 C0.13375 6.27578125 -0.7325 6.3015625 -1.625 6.328125 C-4 6 -4 6 -7 3 C-2.05 3.99 -2.05 3.99 3 5 C3 4.01 3 3.02 3 2 C2.01 1.34 1.02 0.68 0 0 Z " fill="#BB8D7B" transform="translate(97,50)"/>
<path d="M0 0 C2 3 2 3 3 5 C6.99179743 6.33059914 9.26317891 5.81502739 13 4 C13 5.98 13 7.96 13 10 C12.34 10 11.68 10 11 10 C11 9.01 11 8.02 11 7 C9.576875 7.2784375 9.576875 7.2784375 8.125 7.5625 C5 8 5 8 3 7 C2.67 7.99 2.34 8.98 2 10 C1.01 10 0.02 10 -1 10 C-0.835 9.46375 -0.67 8.9275 -0.5 8.375 C0.09660212 5.54113991 0.0656368 2.8880194 0 0 Z " fill="#BC9888" transform="translate(80,35)"/>
<path d="M0 0 C2 3 2 3 3 5 C6.99179743 6.33059914 9.26317891 5.81502739 13 4 C13 5.98 13 7.96 13 10 C12.34 10 11.68 10 11 10 C11 9.01 11 8.02 11 7 C9.576875 7.2784375 9.576875 7.2784375 8.125 7.5625 C5 8 5 8 3 7 C2.67 7.99 2.34 8.98 2 10 C1.01 10 0.02 10 -1 10 C-0.835 9.46375 -0.67 8.9275 -0.5 8.375 C0.09660212 5.54113991 0.0656368 2.8880194 0 0 Z " fill="#BC9988" transform="translate(16,35)"/>
<path d="M0 0 C0 3.61029169 -0.96092582 6.55806676 -2 10 C-2.99 9.34 -3.98 8.68 -5 8 C-5 7.01 -5 6.02 -5 5 C-5.66 5 -6.32 5 -7 5 C-7.33 3.68 -7.66 2.36 -8 1 C-2.25 -1.125 -2.25 -1.125 0 0 Z " fill="#BCB4AD" transform="translate(82,29)"/>
<path d="M0 0 C2.97 0.495 2.97 0.495 6 1 C6.33 2.65 6.66 4.3 7 6 C3.37 6 -0.26 6 -4 6 C-4 5.34 -4 4.68 -4 4 C-2.35 3.34 -0.7 2.68 1 2 C0.67 1.34 0.34 0.68 0 0 Z " fill="#91695B" transform="translate(90,26)"/>
<path d="M0 0 C2.97 0.495 2.97 0.495 6 1 C6.33 2.65 6.66 4.3 7 6 C3.37 6 -0.26 6 -4 6 C-4 5.34 -4 4.68 -4 4 C-2.35 3.34 -0.7 2.68 1 2 C0.67 1.34 0.34 0.68 0 0 Z " fill="#91695B" transform="translate(26,26)"/>
<path d="M0 0 C2.09749995 2.35968744 2.96905704 3.54616994 3.1875 6.75 C3.125625 7.4925 3.06375 8.235 3 9 C2.01 9.33 1.02 9.66 0 10 C-0.33 9.67 -0.66 9.34 -1 9 C-1.66 10.65 -2.32 12.3 -3 14 C-3.33 13.34 -3.66 12.68 -4 12 C-4.66 11.67 -5.32 11.34 -6 11 C-5.01 10.67 -4.02 10.34 -3 10 C-2.3185177 8.10820797 -2.3185177 8.10820797 -2 6 C-1.33333333 4 -0.66666667 2 0 0 Z " fill="#94908F" transform="translate(118,14)"/>
<path d="M0 0 C2.09749995 2.35968744 2.96905704 3.54616994 3.1875 6.75 C3.125625 7.4925 3.06375 8.235 3 9 C2.01 9.33 1.02 9.66 0 10 C-0.33 9.67 -0.66 9.34 -1 9 C-1.66 10.65 -2.32 12.3 -3 14 C-3.33 13.34 -3.66 12.68 -4 12 C-4.66 11.67 -5.32 11.34 -6 11 C-5.01 10.67 -4.02 10.34 -3 10 C-2.3185177 8.10820797 -2.3185177 8.10820797 -2 6 C-1.33333333 4 -0.66666667 2 0 0 Z " fill="#94908F" transform="translate(54,14)"/>
<path d="M0 0 C0.268125 0.61875 0.53625 1.2375 0.8125 1.875 C1.95556848 4.2995233 1.95556848 4.2995233 5 6 C5 6.66 5 7.32 5 8 C2.1875 8.6875 2.1875 8.6875 -1 9 C-2.875 7.75 -2.875 7.75 -4 6 C-4 5.01 -4 4.02 -4 3 C-3.34 3 -2.68 3 -2 3 C-1.34 2.01 -0.68 1.02 0 0 Z " fill="#E1B9AB" transform="translate(100,13)"/>
<path d="M0 0 C0.268125 0.61875 0.53625 1.2375 0.8125 1.875 C1.95556848 4.2995233 1.95556848 4.2995233 5 6 C5 6.66 5 7.32 5 8 C2.1875 8.6875 2.1875 8.6875 -1 9 C-2.875 7.75 -2.875 7.75 -4 6 C-4 5.01 -4 4.02 -4 3 C-3.34 3 -2.68 3 -2 3 C-1.34 2.01 -0.68 1.02 0 0 Z " fill="#E1B9AB" transform="translate(36,13)"/>
<path d="M0 0 C1.2065625 0.0309375 1.2065625 0.0309375 2.4375 0.0625 C2.4375 1.0525 2.4375 2.0425 2.4375 3.0625 C1.7775 3.0625 1.1175 3.0625 0.4375 3.0625 C0.1075 5.7025 -0.2225 8.3425 -0.5625 11.0625 C-1.2225 10.7325 -1.8825 10.4025 -2.5625 10.0625 C-3.01171875 8.03125 -3.01171875 8.03125 -3.25 5.5625 C-3.33636719 4.7478125 -3.42273438 3.933125 -3.51171875 3.09375 C-3.52847656 2.4234375 -3.54523438 1.753125 -3.5625 1.0625 C-2.5625 0.0625 -2.5625 0.0625 0 0 Z " fill="#958F8A" transform="translate(77.5625,39.9375)"/>
<path d="M0 0 C1.2065625 0.0309375 1.2065625 0.0309375 2.4375 0.0625 C2.4375 1.0525 2.4375 2.0425 2.4375 3.0625 C1.7775 3.0625 1.1175 3.0625 0.4375 3.0625 C0.1075 5.7025 -0.2225 8.3425 -0.5625 11.0625 C-1.2225 10.7325 -1.8825 10.4025 -2.5625 10.0625 C-3.01171875 8.03125 -3.01171875 8.03125 -3.25 5.5625 C-3.33636719 4.7478125 -3.42273437 3.933125 -3.51171875 3.09375 C-3.52847656 2.4234375 -3.54523437 1.753125 -3.5625 1.0625 C-2.5625 0.0625 -2.5625 0.0625 0 0 Z " fill="#958F8A" transform="translate(13.5625,39.9375)"/>
<path d="M0 0 C0.598125 0.20625 1.19625 0.4125 1.8125 0.625 C0.1625 0.955 -1.4875 1.285 -3.1875 1.625 C-2.65125 2.470625 -2.115 3.31625 -1.5625 4.1875 C0.15057057 8.47017642 -0.58294979 10.40249945 -2.1875 14.625 C-3.5075 14.295 -4.8275 13.965 -6.1875 13.625 C-5.1975 13.625 -4.2075 13.625 -3.1875 13.625 C-3.8475 9.665 -4.5075 5.705 -5.1875 1.625 C-2.1875 -0.375 -2.1875 -0.375 0 0 Z " fill="#DAAA9B" transform="translate(104.1875,26.375)"/>
<path d="M0 0 C0.598125 0.20625 1.19625 0.4125 1.8125 0.625 C0.1625 0.955 -1.4875 1.285 -3.1875 1.625 C-2.65125 2.470625 -2.115 3.31625 -1.5625 4.1875 C0.15057057 8.47017642 -0.58294979 10.40249945 -2.1875 14.625 C-3.5075 14.295 -4.8275 13.965 -6.1875 13.625 C-5.1975 13.625 -4.2075 13.625 -3.1875 13.625 C-3.8475 9.665 -4.5075 5.705 -5.1875 1.625 C-2.1875 -0.375 -2.1875 -0.375 0 0 Z " fill="#DAAA9B" transform="translate(40.1875,26.375)"/>
<path d="M0 0 C4.50884026 2.31883213 6.93906776 5.06451569 10 9 C5.50347222 9.36458333 5.50347222 9.36458333 3.1875 7.6875 C2 6 2 6 2 3 C1.01 3 0.02 3 -1 3 C-0.67 2.01 -0.34 1.02 0 0 Z " fill="#909090" transform="translate(108,5)"/>
<path d="M0 0 C4.50884026 2.31883213 6.93906776 5.06451569 10 9 C5.50347222 9.36458333 5.50347222 9.36458333 3.1875 7.6875 C2 6 2 6 2 3 C1.01 3 0.02 3 -1 3 C-0.67 2.01 -0.34 1.02 0 0 Z " fill="#909090" transform="translate(44,5)"/>
<path d="M0 0 C-0.99 0.66 -1.98 1.32 -3 2 C-2.01 2.99 -1.02 3.98 0 5 C-1.11375 4.979375 -2.2275 4.95875 -3.375 4.9375 C-6.83215921 4.73619282 -6.83215921 4.73619282 -9 6 C-9 4.35 -9 2.7 -9 1 C-6.04335481 -0.4783226 -3.25770263 -0.06032783 0 0 Z " fill="#805E52" transform="translate(110,27)"/>
<path d="M0 0 C-0.99 0.66 -1.98 1.32 -3 2 C-2.01 2.99 -1.02 3.98 0 5 C-1.11375 4.979375 -2.2275 4.95875 -3.375 4.9375 C-6.83215921 4.73619282 -6.83215921 4.73619282 -9 6 C-9 4.35 -9 2.7 -9 1 C-6.04335481 -0.4783226 -3.25770263 -0.06032783 0 0 Z " fill="#805E52" transform="translate(46,27)"/>
<path d="M0 0 C0.33 0.66 0.66 1.32 1 2 C1.66 2.33 2.32 2.66 3 3 C1.02 3.99 1.02 3.99 -1 5 C-1 5.66 -1 6.32 -1 7 C-0.34 7.33 0.32 7.66 1 8 C0.278125 8.12375 -0.44375 8.2475 -1.1875 8.375 C-3.95721894 8.9904931 -6.3970354 9.88444374 -9 11 C-8.67 10.01 -8.34 9.02 -8 8 C-7.01 8 -6.02 8 -5 8 C-5 7.34 -5 6.68 -5 6 C-4.02246356 4.97803008 -3.0194119 3.98020375 -2 3 C-1.34 2.01 -0.68 1.02 0 0 Z " fill="#DABFB2" transform="translate(22,19)"/>
<path d="M0 0 C0.99 0 1.98 0 3 0 C2.67 1.65 2.34 3.3 2 5 C3.32 5 4.64 5 6 5 C6 5.66 6 6.32 6 7 C3.39417629 7.93065133 2.35801776 8.14917407 -0.25 7.0625 C-0.8275 6.711875 -1.405 6.36125 -2 6 C-1.49396008 3.83125748 -1.00016187 2.00032373 0 0 Z " fill="#F5D1C1" transform="translate(87,14)"/>
<path d="M0 0 C0.99 0 1.98 0 3 0 C2.67 1.65 2.34 3.3 2 5 C3.32 5 4.64 5 6 5 C6 5.66 6 6.32 6 7 C3.39417629 7.93065133 2.35801776 8.14917407 -0.25 7.0625 C-0.8275 6.711875 -1.405 6.36125 -2 6 C-1.49396008 3.83125748 -1.00016187 2.00032373 0 0 Z " fill="#F5D1C1" transform="translate(23,14)"/>
<path d="M0 0 C0.66 0 1.32 0 2 0 C1.34 2.97 0.68 5.94 0 9 C-0.99 9 -1.98 9 -3 9 C-3.75 7.3125 -3.75 7.3125 -4 5 C-2.1875 2.25 -2.1875 2.25 0 0 Z " fill="#EBEBE8" transform="translate(80,14)"/>
<path d="M0 0 C0.66 0 1.32 0 2 0 C1.34 2.97 0.68 5.94 0 9 C-0.99 9 -1.98 9 -3 9 C-3.75 7.3125 -3.75 7.3125 -4 5 C-2.1875 2.25 -2.1875 2.25 0 0 Z " fill="#EBEBE8" transform="translate(16,14)"/>
<path d="M0 0 C1.125 1.75 1.125 1.75 2 4 C1.4375 6.125 1.4375 6.125 0 8 C-2.625 9.25 -2.625 9.25 -5 10 C-3.14285714 2.42857143 -3.14285714 2.42857143 0 0 Z " fill="#A9AEAC" transform="translate(78,9)"/>
<path d="M0 0 C1.125 1.75 1.125 1.75 2 4 C1.4375 6.125 1.4375 6.125 0 8 C-2.625 9.25 -2.625 9.25 -5 10 C-3.14285714 2.42857143 -3.14285714 2.42857143 0 0 Z " fill="#A9AEAD" transform="translate(14,9)"/>
<path d="M0 0 C1.4540625 0.0309375 1.4540625 0.0309375 2.9375 0.0625 C2.2775 0.7225 1.6175 1.3825 0.9375 2.0625 C1.9275 2.7225 2.9175 3.3825 3.9375 4.0625 C2.2875 4.0625 0.6375 4.0625 -1.0625 4.0625 C-1.3925 5.3825 -1.7225 6.7025 -2.0625 8.0625 C-4.0625 6.0625 -4.0625 6.0625 -4.25 3.5 C-3.97031732 -0.13587487 -3.72751987 0.07607183 0 0 Z " fill="#C9BAB1" transform="translate(88.0625,8.9375)"/>
<path d="M0 0 C1.4540625 0.0309375 1.4540625 0.0309375 2.9375 0.0625 C2.2775 0.7225 1.6175 1.3825 0.9375 2.0625 C1.9275 2.7225 2.9175 3.3825 3.9375 4.0625 C2.2875 4.0625 0.6375 4.0625 -1.0625 4.0625 C-1.3925 5.3825 -1.7225 6.7025 -2.0625 8.0625 C-4.0625 6.0625 -4.0625 6.0625 -4.25 3.5 C-3.97031732 -0.13587487 -3.72751987 0.07607183 0 0 Z " fill="#C9BAB1" transform="translate(24.0625,8.9375)"/>
<path d="M0 0 C0 0.33 0 0.66 0 1 C-0.969375 1.12375 -1.93875 1.2475 -2.9375 1.375 C-4.4534375 1.684375 -4.4534375 1.684375 -6 2 C-6.33 2.66 -6.66 3.32 -7 4 C-10.96 4 -14.92 4 -19 4 C-13.06147771 0.04098514 -6.91895619 -0.24710558 0 0 Z " fill="#757778" transform="translate(102,2)"/>
<path d="M0 0 C0 0.33 0 0.66 0 1 C-0.969375 1.12375 -1.93875 1.2475 -2.9375 1.375 C-4.4534375 1.684375 -4.4534375 1.684375 -6 2 C-6.33 2.66 -6.66 3.32 -7 4 C-10.96 4 -14.92 4 -19 4 C-13.06147771 0.04098514 -6.91895619 -0.24710558 0 0 Z " fill="#757778" transform="translate(38,2)"/>
<path d="M0 0 C1.98 0 3.96 0 6 0 C5.67 1.65 5.34 3.3 5 5 C3.35 4.67 1.7 4.34 0 4 C0 2.68 0 1.36 0 0 Z " fill="#FBD3C8" transform="translate(104,35)"/>
<path d="M0 0 C1.98 0 3.96 0 6 0 C5.67 1.65 5.34 3.3 5 5 C3.35 4.67 1.7 4.34 0 4 C0 2.68 0 1.36 0 0 Z " fill="#FBD3C8" transform="translate(40,35)"/>
<path d="M0 0 C1.65 0.33 3.3 0.66 5 1 C4.67 3.31 4.34 5.62 4 8 C3.01 8 2.02 8 1 8 C0.34 6.35 -0.32 4.7 -1 3 C-0.34 2.67 0.32 2.34 1 2 C0.67 1.34 0.34 0.68 0 0 Z " fill="#CB9E8C" transform="translate(86,45)"/>
<path d="M0 0 C1.65 0.33 3.3 0.66 5 1 C4.67 3.31 4.34 5.62 4 8 C3.01 8 2.02 8 1 8 C0.34 6.35 -0.32 4.7 -1 3 C-0.34 2.67 0.32 2.34 1 2 C0.67 1.34 0.34 0.68 0 0 Z " fill="#CB9E8C" transform="translate(22,45)"/>
<path d="M0 0 C0.66 0 1.32 0 2 0 C2.33 3.3 2.66 6.6 3 10 C1.68 9.67 0.36 9.34 -1 9 C-0.67 6.03 -0.34 3.06 0 0 Z " fill="#FBD3C7" transform="translate(98,30)"/>
<path d="M0 0 C0.66 0 1.32 0 2 0 C2.33 3.3 2.66 6.6 3 10 C1.68 9.67 0.36 9.34 -1 9 C-0.67 6.03 -0.34 3.06 0 0 Z " fill="#FBD3C7" transform="translate(34,30)"/>
<path d="M0 0 C0.99 0 1.98 0 3 0 C3.33 2.31 3.66 4.62 4 7 C3.34 7 2.68 7 2 7 C1.67 7.99 1.34 8.98 1 10 C0.67 6.7 0.34 3.4 0 0 Z " fill="#6A6B67" transform="translate(71,28)"/>
<path d="M0 0 C0.99 0 1.98 0 3 0 C3.33 2.31 3.66 4.62 4 7 C3.34 7 2.68 7 2 7 C1.67 7.99 1.34 8.98 1 10 C0.67 6.7 0.34 3.4 0 0 Z " fill="#6A6B67" transform="translate(7,28)"/>
<path d="M0 0 C5.94 1.485 5.94 1.485 12 3 C10 5 10 5 7.6875 5.25 C4.79489025 4.98092002 2.63077849 4.20264159 0 3 C0 2.01 0 1.02 0 0 Z " fill="#402421" transform="translate(90,54)"/>
<path d="M0 0 C5.94 1.485 5.94 1.485 12 3 C10 5 10 5 7.6875 5.25 C4.79489025 4.98092002 2.63077849 4.20264159 0 3 C0 2.01 0 1.02 0 0 Z " fill="#402421" transform="translate(26,54)"/>
<path d="M0 0 C2.375 0.1875 2.375 0.1875 5 1 C6.3125 3.5625 6.3125 3.5625 7 6 C5.02 5.01 3.04 4.02 1 3 C0.67 3.99 0.34 4.98 0 6 C-0.66 5.67 -1.32 5.34 -2 5 C-1.34 3.35 -0.68 1.7 0 0 Z " fill="#554644" transform="translate(78,46)"/>
<path d="M0 0 C2.375 0.1875 2.375 0.1875 5 1 C6.3125 3.5625 6.3125 3.5625 7 6 C5.02 5.01 3.04 4.02 1 3 C0.67 3.99 0.34 4.98 0 6 C-0.66 5.67 -1.32 5.34 -2 5 C-1.34 3.35 -0.68 1.7 0 0 Z " fill="#554644" transform="translate(14,46)"/>
<path d="M0 0 C0.99 0.33 1.98 0.66 3 1 C3 1.99 3 2.98 3 4 C4.32 4.66 5.64 5.32 7 6 C7 6.66 7 7.32 7 8 C6.01 8.33 5.02 8.66 4 9 C1.80808632 6.80808632 1.72130648 5.88522592 1 3 C0.34 2.34 -0.32 1.68 -1 1 C-0.67 0.67 -0.34 0.34 0 0 Z " fill="#D6D6D5" transform="translate(106,11)"/>
<path d="M0 0 C0.99 0.33 1.98 0.66 3 1 C3 1.99 3 2.98 3 4 C4.32 4.66 5.64 5.32 7 6 C7 6.66 7 7.32 7 8 C6.01 8.33 5.02 8.66 4 9 C1.80808632 6.80808632 1.72130648 5.88522592 1 3 C0.34 2.34 -0.32 1.68 -1 1 C-0.67 0.67 -0.34 0.34 0 0 Z " fill="#D6D6D5" transform="translate(42,11)"/>
<path d="M0 0 C0.93423645 3.01031744 1.04449911 3.86650268 0 7 C-2.0625 8.1875 -2.0625 8.1875 -4 9 C-4 4.91591468 -2.8670615 2.8670615 0 0 Z " fill="#B9B8B7" transform="translate(117,14)"/>
<path d="M0 0 C0.93423645 3.01031744 1.04449911 3.86650268 0 7 C-2.0625 8.1875 -2.0625 8.1875 -4 9 C-4 4.91591468 -2.8670615 2.8670615 0 0 Z " fill="#B9B8B7" transform="translate(53,14)"/>
<path d="M0 0 C0 1.98 0 3.96 0 6 C-0.99 6.495 -0.99 6.495 -2 7 C-2 6.01 -2 5.02 -2 4 C-3.98 4.33 -5.96 4.66 -8 5 C-8 4.34 -8 3.68 -8 3 C-1.125 0 -1.125 0 0 0 Z " fill="#E6BAAA" transform="translate(98,30)"/>
<path d="M0 0 C0 1.98 0 3.96 0 6 C-0.99 6.495 -0.99 6.495 -2 7 C-2 6.01 -2 5.02 -2 4 C-3.98 4.33 -5.96 4.66 -8 5 C-8 4.34 -8 3.68 -8 3 C-1.125 0 -1.125 0 0 0 Z " fill="#E6BAAA" transform="translate(34,30)"/>
<path d="M0 0 C-2.97 2.475 -2.97 2.475 -6 5 C-6.33 3.35 -6.66 1.7 -7 0 C-3.86650268 -1.04449911 -3.01031744 -0.93423645 0 0 Z " fill="#4B3532" transform="translate(110,55)"/>
<path d="M0 0 C-2.97 2.475 -2.97 2.475 -6 5 C-6.33 3.35 -6.66 1.7 -7 0 C-3.86650268 -1.04449911 -3.01031744 -0.93423645 0 0 Z " fill="#4B3532" transform="translate(46,55)"/>
<path d="M0 0 C3.3 0 6.6 0 10 0 C8.68 1.32 7.36 2.64 6 4 C1.125 2.25 1.125 2.25 0 0 Z " fill="#885248" transform="translate(94,40)"/>
<path d="M0 0 C3.3 0 6.6 0 10 0 C8.68 1.32 7.36 2.64 6 4 C1.125 2.25 1.125 2.25 0 0 Z " fill="#885248" transform="translate(30,40)"/>
<path d="M0 0 C0.99 0 1.98 0 3 0 C3.33 1.32 3.66 2.64 4 4 C3.34 3.67 2.68 3.34 2 3 C1.34 4.65 0.68 6.3 0 8 C-0.33 7.34 -0.66 6.68 -1 6 C-1.66 5.67 -2.32 5.34 -3 5 C-2.01 4.67 -1.02 4.34 0 4 C0 2.68 0 1.36 0 0 Z " fill="#9F9996" transform="translate(115,20)"/>
<path d="M0 0 C0.33 0.66 0.66 1.32 1 2 C1.66 2.33 2.32 2.66 3 3 C1.02 3.99 1.02 3.99 -1 5 C-1 5.66 -1 6.32 -1 7 C-0.34 7.33 0.32 7.66 1 8 C-0.32 7.67 -1.64 7.34 -3 7 C-2.01 4.69 -1.02 2.38 0 0 Z " fill="#E4BEAE" transform="translate(86,19)"/>
<path d="M0 0 C0.99 0 1.98 0 3 0 C3.33 1.32 3.66 2.64 4 4 C3.34 3.67 2.68 3.34 2 3 C1.34 4.65 0.68 6.3 0 8 C-0.33 7.34 -0.66 6.68 -1 6 C-1.66 5.67 -2.32 5.34 -3 5 C-2.01 4.67 -1.02 4.34 0 4 C0 2.68 0 1.36 0 0 Z " fill="#9F9996" transform="translate(51,20)"/>
<path d="M0 0 C2.31 0 4.62 0 7 0 C6.67 1.32 6.34 2.64 6 4 C4.35 4 2.7 4 1 4 C0.67 2.68 0.34 1.36 0 0 Z " fill="#966555" transform="translate(84,42)"/>
<path d="M0 0 C2.31 0 4.62 0 7 0 C6.67 1.32 6.34 2.64 6 4 C4.35 4 2.7 4 1 4 C0.67 2.68 0.34 1.36 0 0 Z " fill="#966555" transform="translate(20,42)"/>
<path d="M0 0 C0.33 1.32 0.66 2.64 1 4 C1.66 4 2.32 4 3 4 C2.34 5.98 1.68 7.96 1 10 C0.34 10 -0.32 10 -1 10 C-0.67 6.7 -0.34 3.4 0 0 Z " fill="#766A66" transform="translate(115,36)"/>
<path d="M0 0 C0.33 1.32 0.66 2.64 1 4 C1.66 4 2.32 4 3 4 C2.34 5.98 1.68 7.96 1 10 C0.34 10 -0.32 10 -1 10 C-0.67 6.7 -0.34 3.4 0 0 Z " fill="#766A66" transform="translate(51,36)"/>
<path d="M0 0 C0 0.66 0 1.32 0 2 C-2.70879335 3.35439668 -5.00933268 3.06501451 -8 3 C-8 2.34 -8 1.68 -8 1 C-5.07175348 0.02391783 -3.04386724 -0.08226668 0 0 Z " fill="#634A42" transform="translate(94,29)"/>
<path d="M0 0 C0 0.66 0 1.32 0 2 C-2.70879335 3.35439668 -5.00933268 3.06501451 -8 3 C-8 2.34 -8 1.68 -8 1 C-5.07175348 0.02391783 -3.04386724 -0.08226668 0 0 Z " fill="#634A42" transform="translate(30,29)"/>
<path d="M0 0 C1.875 0.3125 1.875 0.3125 4 1 C6 4 6 4 7 7 C4.20171644 6.61402985 3.1794116 6.19863427 1.25 4.0625 C0 2 0 2 0 0 Z " fill="#7B5951" transform="translate(86,52)"/>
<path d="M0 0 C1.875 0.3125 1.875 0.3125 4 1 C6 4 6 4 7 7 C4.20171644 6.61402985 3.1794116 6.19863427 1.25 4.0625 C0 2 0 2 0 0 Z " fill="#7B5951" transform="translate(22,52)"/>
<path d="M0 0 C0.66 1.32 1.32 2.64 2 4 C1.01 4.495 1.01 4.495 0 5 C-0.33 5.66 -0.66 6.32 -1 7 C-1.99 6.01 -2.98 5.02 -4 4 C-2.68 2.68 -1.36 1.36 0 0 Z " fill="#D5BEB5" transform="translate(100,13)"/>
<path d="M0 0 C0.66 1.32 1.32 2.64 2 4 C1.01 4.495 1.01 4.495 0 5 C-0.33 5.66 -0.66 6.32 -1 7 C-1.99 6.01 -2.98 5.02 -4 4 C-2.68 2.68 -1.36 1.36 0 0 Z " fill="#D5BEB5" transform="translate(36,13)"/>
<path d="M0 0 C1.98 0 3.96 0 6 0 C6.33 0.66 6.66 1.32 7 2 C6.34 2.66 5.68 3.32 5 4 C2.525 3.01 2.525 3.01 0 2 C0 1.34 0 0.68 0 0 Z " fill="#F0C2B2" transform="translate(94,51)"/>
<path d="M0 0 C1.98 0 3.96 0 6 0 C6.33 0.66 6.66 1.32 7 2 C6.34 2.66 5.68 3.32 5 4 C2.525 3.01 2.525 3.01 0 2 C0 1.34 0 0.68 0 0 Z " fill="#F1C2B2" transform="translate(30,51)"/>
<path d="M0 0 C1.98 0 3.96 0 6 0 C5.67 0.99 5.34 1.98 5 3 C3.35 3 1.7 3 0 3 C0 2.01 0 1.02 0 0 Z " fill="#CFA593" transform="translate(106,47)"/>
<path d="M0 0 C1.98 0 3.96 0 6 0 C5.67 0.99 5.34 1.98 5 3 C3.35 3 1.7 3 0 3 C0 2.01 0 1.02 0 0 Z " fill="#D0A593" transform="translate(42,47)"/>
<path d="M0 0 C0 1.98 0 3.96 0 6 C-0.66 6 -1.32 6 -2 6 C-2 5.01 -2 4.02 -2 3 C-3.98 3.33 -5.96 3.66 -8 4 C-2 0 -2 0 0 0 Z " fill="#B88171" transform="translate(93,39)"/>
<path d="M0 0 C0 1.98 0 3.96 0 6 C-0.66 6 -1.32 6 -2 6 C-2 5.01 -2 4.02 -2 3 C-3.98 3.33 -5.96 3.66 -8 4 C-2 0 -2 0 0 0 Z " fill="#B88171" transform="translate(29,39)"/>
<path d="M0 0 C2.97 0 5.94 0 9 0 C9.33 0.66 9.66 1.32 10 2 C9.01 3.485 9.01 3.485 8 5 C7.608125 4.525625 7.21625 4.05125 6.8125 3.5625 C4.59191626 1.64820367 2.86624291 1.38733012 0 1 C0 0.67 0 0.34 0 0 Z " fill="#D3A493" transform="translate(89,25)"/>
<path d="M0 0 C2.97 0 5.94 0 9 0 C9.33 0.66 9.66 1.32 10 2 C9.01 3.485 9.01 3.485 8 5 C7.608125 4.525625 7.21625 4.05125 6.8125 3.5625 C4.59191626 1.64820367 2.86624291 1.38733012 0 1 C0 0.67 0 0.34 0 0 Z " fill="#D3A493" transform="translate(25,25)"/>
</svg>
